<svg width="100" height="100" viewBox="0 0 100 100" fill="none" xmlns="http://www.w3.org/2000/svg">
<g clip-path="url(#clip0_46_200)">
<path d="M50.0001 22.5807C54.4468 22.5807 58.0646 18.963 58.0646 14.5162C58.0646 10.0694 54.4468 6.45166 50.0001 6.45166C45.5533 6.45166 41.9355 10.0694 41.9355 14.5162C41.9355 18.963 45.5533 22.5807 50.0001 22.5807ZM50.0001 9.67747C52.6678 9.67747 54.8388 11.8484 54.8388 14.5162C54.8388 17.1839 52.6678 19.3549 50.0001 19.3549C47.3323 19.3549 45.1614 17.1839 45.1614 14.5162C45.1614 11.8484 47.3323 9.67747 50.0001 9.67747Z" fill="#00515B"/>
<path d="M50 38.0661L61.3355 23.8968C63.3871 21.3339 64.5162 18.1129 64.5162 14.829V14.5161C64.5162 6.5129 58.0033 0 50 0C41.9968 0 35.4839 6.5129 35.4839 14.5161V14.829C35.4839 18.1129 36.6129 21.3339 38.6645 23.8968L50 38.0661ZM38.7097 14.5161C38.7097 8.29032 43.7742 3.22581 50 3.22581C56.2258 3.22581 61.2904 8.29032 61.2904 14.5161V14.829C61.2904 17.3823 60.4113 19.8887 58.8162 21.8823L50 32.9016L41.1839 21.8806C39.5887 19.8887 38.7097 17.3823 38.7097 14.829V14.5161Z" fill="#00515B"/>
<path d="M85.484 6.45166C81.0372 6.45166 77.4194 10.0694 77.4194 14.5162C77.4194 18.963 81.0372 22.5807 85.484 22.5807C89.9307 22.5807 93.5485 18.963 93.5485 14.5162C93.5485 10.0694 89.9307 6.45166 85.484 6.45166ZM85.484 19.3549C82.8162 19.3549 80.6452 17.1839 80.6452 14.5162C80.6452 11.8484 82.8162 9.67747 85.484 9.67747C88.1517 9.67747 90.3227 11.8484 90.3227 14.5162C90.3227 17.1839 88.1517 19.3549 85.484 19.3549Z" fill="#00515B"/>
<path d="M85.4839 0C77.4807 0 70.9678 6.5129 70.9678 14.5161V14.829C70.9678 18.1129 72.0968 21.3339 74.1484 23.8968L85.4839 38.0661L96.8194 23.8968C98.871 21.3339 100 18.1129 100 14.829V14.5161C100 6.5129 93.4871 0 85.4839 0V0ZM96.7742 14.829C96.7742 17.3823 95.8952 19.8887 94.3 21.8823L85.4839 32.9016L76.6678 21.8806C75.0726 19.8887 74.1936 17.3823 74.1936 14.829V14.5161C74.1936 8.29032 79.2581 3.22581 85.4839 3.22581C91.7097 3.22581 96.7742 8.29032 96.7742 14.5161V14.829Z" fill="#00515B"/>
<path d="M14.5162 22.5807C18.963 22.5807 22.5807 18.963 22.5807 14.5162C22.5807 10.0694 18.963 6.45166 14.5162 6.45166C10.0694 6.45166 6.45166 10.0694 6.45166 14.5162C6.45166 18.963 10.0694 22.5807 14.5162 22.5807ZM14.5162 9.67747C17.1839 9.67747 19.3549 11.8484 19.3549 14.5162C19.3549 17.1839 17.1839 19.3549 14.5162 19.3549C11.8484 19.3549 9.67747 17.1839 9.67747 14.5162C9.67747 11.8484 11.8484 9.67747 14.5162 9.67747Z" fill="#00515B"/>
<path d="M14.5161 38.0661L25.8516 23.8968C27.9032 21.3339 29.0323 18.1129 29.0323 14.829V14.5161C29.0323 6.5129 22.5194 0 14.5161 0C6.5129 0 0 6.5129 0 14.5161V14.829C0 18.1129 1.12903 21.3339 3.18064 23.8968L14.5161 38.0661ZM3.22581 14.5161C3.22581 8.29032 8.29032 3.22581 14.5161 3.22581C20.7419 3.22581 25.8064 8.29032 25.8064 14.5161V14.829C25.8064 17.3823 24.9274 19.8887 23.3323 21.8823L14.5161 32.9016L5.7 21.8806C4.10484 19.8887 3.22581 17.3823 3.22581 14.829V14.5161Z" fill="#00515B"/>
<path d="M96.7742 64.6355V46.3613C96.7742 44.3387 95.4032 42.6484 93.5484 42.121V35.4839H90.3226V42.3484L87.0968 43.3161V40.3226H83.871V44.2839L77.3468 46.242C75.4613 46.8081 74.1936 48.5113 74.1936 50.4807V51.6129H64.5161V48.3871C64.5161 46.6081 63.0694 45.1613 61.2903 45.1613H58.0645V41.9355H54.8387V45.1613H51.6129V38.7097H48.3871V45.1613H45.1613V41.9355H41.9355V45.1613H38.7097C36.9306 45.1613 35.4839 46.6081 35.4839 48.3871V51.6129H25.8065V50.4807C25.8065 48.5113 24.5387 46.8081 22.6516 46.2403L16.129 44.2839V40.3226H12.9032V43.3161L9.67742 42.3484V35.4839H6.45161V42.1226C4.59677 42.65 3.22581 44.3403 3.22581 46.3629V64.6355C1.38065 65.0678 0 66.7178 0 68.692C0 69.3984 0.180645 70.1 0.525806 70.7194L0.666129 70.9726C10.6145 88.8774 29.5177 100 50 100C70.4823 100 89.3855 88.8774 99.3339 70.9726L99.4758 70.7178C99.8194 70.0984 100 69.3984 100 68.6903C100 66.7161 98.6194 65.0678 96.7742 64.6355ZM77.4194 50.4807C77.4194 49.9468 77.7629 49.4839 78.2742 49.3307L92.0048 45.2113C92.7532 44.9903 93.5484 45.5839 93.5484 46.3613V64.5161H83.871V54.8387C83.871 53.0597 82.4242 51.6129 80.6452 51.6129H77.4194V50.4807ZM80.6452 54.8387V64.5161H64.5161V54.8387H80.6452ZM38.7097 48.3871H61.2903V54.8387V64.5161H38.7097V54.8387V48.3871ZM35.4839 64.5161H19.3548V54.8387H35.4839V64.5161ZM7.99678 45.2129L21.7242 49.3307C22.2371 49.4839 22.5806 49.9468 22.5806 50.4807V51.6129H19.3548C17.5758 51.6129 16.129 53.0597 16.129 54.8387V64.5161H6.45161V46.3613C6.45161 45.5839 7.24516 44.9839 7.99678 45.2129ZM3.48548 69.4049L3.34516 69.1516C3.26613 69.0113 3.22581 68.8516 3.22581 68.6903C3.22581 68.1678 3.65161 67.742 4.17419 67.742H32.2581V69.3549C32.2581 70.2436 31.5339 70.9678 30.6452 70.9678H20.9677C18.3 70.9678 16.129 73.1387 16.129 75.8065C16.129 78.4742 18.3 80.6452 20.9677 80.6452H40.3226C41.2113 80.6452 41.9355 81.3694 41.9355 82.2581C41.9355 83.1468 41.2113 83.871 40.3226 83.871H37.0968C34.429 83.871 32.2581 86.042 32.2581 88.7097C32.2581 91.3774 34.429 93.5484 37.0968 93.5484C37.9855 93.5484 38.7097 94.2726 38.7097 95.1613V95.5436C23.9355 92.3307 10.9984 82.9274 3.48548 69.4049ZM41.9355 96.1371V95.1613C41.9355 92.4936 39.7645 90.3226 37.0968 90.3226C36.2081 90.3226 35.4839 89.5984 35.4839 88.7097C35.4839 87.821 36.2081 87.0968 37.0968 87.0968H40.3226C42.9903 87.0968 45.1613 84.9258 45.1613 82.2581C45.1613 79.5903 42.9903 77.4194 40.3226 77.4194H20.9677C20.079 77.4194 19.3548 76.6952 19.3548 75.8065C19.3548 74.9178 20.079 74.1936 20.9677 74.1936H30.6452C33.3129 74.1936 35.4839 72.0226 35.4839 69.3549V67.742H58.0645V69.3549C58.0645 72.0226 60.2355 74.1936 62.9032 74.1936H79.0323C79.921 74.1936 80.6452 74.9178 80.6452 75.8065C80.6452 76.6952 79.921 77.4194 79.0323 77.4194H69.3548C66.6871 77.4194 64.5161 79.5903 64.5161 82.2581C64.5161 83.1468 63.7919 83.871 62.9032 83.871H56.4516C53.7839 83.871 51.6129 86.042 51.6129 88.7097C51.6129 91.3774 53.7839 93.5484 56.4516 93.5484C57.3403 93.5484 58.0645 94.2726 58.0645 95.1613V96.1371C55.4177 96.5436 52.7258 96.7742 50 96.7742C47.2742 96.7742 44.5823 96.5436 41.9355 96.1371ZM96.6548 69.1516L96.5145 69.4049C89.0016 82.9274 76.0645 92.3307 61.2903 95.5436V95.1613C61.2903 92.4936 59.1194 90.3226 56.4516 90.3226C55.5629 90.3226 54.8387 89.5984 54.8387 88.7097C54.8387 87.821 55.5629 87.0968 56.4516 87.0968H62.9032C65.571 87.0968 67.7419 84.9258 67.7419 82.2581C67.7419 81.3694 68.4661 80.6452 69.3548 80.6452H79.0323C81.7 80.6452 83.871 78.4742 83.871 75.8065C83.871 73.1387 81.7 70.9678 79.0323 70.9678H62.9032C62.0145 70.9678 61.2903 70.2436 61.2903 69.3549V67.742H95.8258C96.3484 67.742 96.7742 68.1678 96.7742 68.6903C96.7742 68.8516 96.7339 69.0113 96.6548 69.1516Z" fill="#00515B"/>
<path d="M22.5806 58.0645H25.8064V61.2902H22.5806V58.0645Z" fill="#00515B"/>
<path d="M29.0322 58.0645H32.258V61.2902H29.0322V58.0645Z" fill="#00515B"/>
<path d="M41.9355 51.6129H45.1614V54.8387H41.9355V51.6129Z" fill="#00515B"/>
<path d="M48.3872 51.6129H51.613V54.8387H48.3872V51.6129Z" fill="#00515B"/>
<path d="M41.9355 58.0645H45.1614V61.2902H41.9355V58.0645Z" fill="#00515B"/>
<path d="M48.3872 58.0645H51.613V61.2902H48.3872V58.0645Z" fill="#00515B"/>
<path d="M54.8386 51.6129H58.0644V54.8387H54.8386V51.6129Z" fill="#00515B"/>
<path d="M54.8386 58.0645H58.0644V61.2902H54.8386V58.0645Z" fill="#00515B"/>
<path d="M9.67749 58.0645H12.9033V61.2902H9.67749V58.0645Z" fill="#00515B"/>
<path d="M9.67749 51.6129H12.9033V54.8387H9.67749V51.6129Z" fill="#00515B"/>
<path d="M74.1936 58.0645H77.4194V61.2902H74.1936V58.0645Z" fill="#00515B"/>
<path d="M67.7419 58.0645H70.9677V61.2902H67.7419V58.0645Z" fill="#00515B"/>
<path d="M87.0967 58.0645H90.3225V61.2902H87.0967V58.0645Z" fill="#00515B"/>
<path d="M87.0967 51.6129H90.3225V54.8387H87.0967V51.6129Z" fill="#00515B"/>
</g>
<defs>
<clipPath id="clip0_46_200">
<rect width="100" height="100" fill="white"/>
</clipPath>
</defs>
</svg>
