<svg width="100" height="100" viewBox="0 0 100 100" fill="none" xmlns="http://www.w3.org/2000/svg">
<path d="M90.2344 8.59375H80.9244V5.85938C80.9244 2.62852 78.2959 0 75.065 0C71.8342 0 69.2057 2.62852 69.2057 5.85938V8.59375H36.3932V5.85938C36.3932 2.62852 33.7646 0 30.5338 0C27.3029 0 24.6744 2.62852 24.6744 5.85938V8.66602C24.5084 8.62012 24.3344 8.59375 24.1537 8.59375H16.3717C10.9869 8.59375 6.60606 12.9746 6.60606 18.3594V51.6275C6.60606 52.7063 7.48066 53.5807 8.55918 53.5807C9.6377 53.5807 10.5123 52.7063 10.5123 51.6275V28.7109H80.9244C82.0029 28.7109 82.8775 27.8365 82.8775 26.7578C82.8775 25.6791 82.0029 24.8047 80.9244 24.8047H10.5123V18.3594C10.5123 15.1285 13.1408 12.5 16.3717 12.5H24.1537C24.3344 12.5 24.5084 12.4734 24.6744 12.4277V14.9414C24.6744 18.1723 27.3029 20.8008 30.5338 20.8008C33.7646 20.8008 36.3932 18.1723 36.3932 14.9414V12.5H69.2057V14.9414C69.2057 18.1723 71.8342 20.8008 75.065 20.8008C78.2959 20.8008 80.9244 18.1723 80.9244 14.9414V12.5H90.2344C93.4652 12.5 96.0938 15.1285 96.0938 18.3594V92.577C96.0938 94.516 94.5162 96.0938 92.577 96.0938C90.6377 96.0938 89.0602 94.516 89.0602 92.577V87.5244C89.0602 86.4457 88.1855 85.5713 87.107 85.5713H64.3881C63.3096 85.5713 62.435 86.4457 62.435 87.5244C62.435 88.6031 63.3096 89.4775 64.3881 89.4775H85.1539V92.577C85.1539 93.8486 85.4758 95.0463 86.0416 96.0938H7.42188C5.4834 96.0938 3.90625 94.5166 3.90625 92.5781V89.4775H47.6221C48.7006 89.4775 49.5752 88.6031 49.5752 87.5244C49.5752 86.4457 48.7006 85.5713 47.6221 85.5713H28.1072C31.5201 82.632 33.6873 78.2844 33.6873 73.4375C33.6873 64.6064 26.5027 57.4219 17.6717 57.4219C8.84062 57.4219 1.65605 64.6064 1.65605 73.4375C1.65605 78.2844 3.82324 82.632 7.23613 85.5713H1.95312C0.874609 85.5713 0 86.4457 0 87.5244V92.5781C0 96.6705 3.32949 100 7.42188 100H92.577C96.6699 100 100 96.6701 100 92.577V18.3594C100 12.9746 95.6191 8.59375 90.2344 8.59375ZM32.4869 14.9414C32.4869 16.0184 31.6107 16.8945 30.5338 16.8945C29.4568 16.8945 28.5807 16.0184 28.5807 14.9414V5.85938C28.5807 4.78242 29.4568 3.90625 30.5338 3.90625C31.6107 3.90625 32.4869 4.78242 32.4869 5.85938V14.9414ZM77.0182 14.9414C77.0182 16.0184 76.142 16.8945 75.065 16.8945C73.9881 16.8945 73.1119 16.0184 73.1119 14.9414V5.85938C73.1119 4.78242 73.9881 3.90625 75.065 3.90625C76.142 3.90625 77.0182 4.78242 77.0182 5.85938V14.9414ZM5.5623 73.4375C5.5623 66.7604 10.9945 61.3281 17.6717 61.3281C24.3488 61.3281 29.7811 66.7604 29.7811 73.4375C29.7811 80.1146 24.3488 85.5469 17.6717 85.5469C10.9945 85.5469 5.5623 80.1146 5.5623 73.4375Z" fill="#00515B"/>
<path d="M91.4666 25.377C91.1035 25.0137 90.5996 24.8047 90.0859 24.8047C89.5721 24.8047 89.0684 25.0137 88.7051 25.377C88.3418 25.7402 88.1328 26.2441 88.1328 26.7578C88.1328 27.2715 88.3416 27.7754 88.7051 28.1387C89.0686 28.502 89.5721 28.7109 90.0859 28.7109C90.5996 28.7109 91.1035 28.502 91.4666 28.1387C91.8299 27.7754 92.0391 27.2715 92.0391 26.7578C92.0391 26.2441 91.8301 25.7402 91.4666 25.377Z" fill="#00515B"/>
<path d="M58.3299 86.1426C57.9668 85.7793 57.4629 85.5723 56.9492 85.5723C56.4355 85.5723 55.9316 85.7793 55.5684 86.1426C55.2051 86.5078 54.9961 87.0098 54.9961 87.5234C54.9961 88.0391 55.2049 88.541 55.5684 88.9063C55.9316 89.2695 56.4355 89.4766 56.9492 89.4766C57.4629 89.4766 57.9668 89.2695 58.3299 88.9063C58.6932 88.541 58.9023 88.0371 58.9023 87.5234C58.9023 87.0098 58.6934 86.5078 58.3299 86.1426Z" fill="#00515B"/>
<path d="M44.1885 59.375C40.0961 59.375 36.7666 62.7045 36.7666 66.7969C36.7666 70.8893 40.0961 74.2188 44.1885 74.2188C48.2809 74.2188 51.6104 70.8893 51.6104 66.7969C51.6104 62.7045 48.2809 59.375 44.1885 59.375ZM44.1885 70.3125C42.25 70.3125 40.6729 68.7354 40.6729 66.7969C40.6729 64.8584 42.25 63.2812 44.1885 63.2812C46.127 63.2812 47.7041 64.8584 47.7041 66.7969C47.7041 68.7354 46.127 70.3125 44.1885 70.3125Z" fill="#00515B"/>
<path d="M62.4175 59.375C58.3251 59.375 54.9956 62.7045 54.9956 66.7969C54.9956 70.8893 58.3251 74.2188 62.4175 74.2188C66.5099 74.2188 69.8394 70.8893 69.8394 66.7969C69.8394 62.7045 66.5099 59.375 62.4175 59.375ZM62.4175 70.3125C60.479 70.3125 58.9019 68.7354 58.9019 66.7969C58.9019 64.8584 60.479 63.2812 62.4175 63.2812C64.356 63.2812 65.9331 64.8584 65.9331 66.7969C65.9331 68.7354 64.356 70.3125 62.4175 70.3125Z" fill="#00515B"/>
<path d="M80.647 59.375C76.5546 59.375 73.2251 62.7045 73.2251 66.7969C73.2251 70.8893 76.5546 74.2188 80.647 74.2188C84.7394 74.2188 88.0688 70.8893 88.0688 66.7969C88.0688 62.7045 84.7394 59.375 80.647 59.375ZM80.647 70.3125C78.7085 70.3125 77.1313 68.7354 77.1313 66.7969C77.1313 64.8584 78.7085 63.2812 80.647 63.2812C82.5854 63.2812 84.1626 64.8584 84.1626 66.7969C84.1626 68.7354 82.5854 70.3125 80.647 70.3125Z" fill="#00515B"/>
<path d="M25.9595 39.0625C21.8671 39.0625 18.5376 42.392 18.5376 46.4844C18.5376 50.5768 21.8671 53.9062 25.9595 53.9062C30.0519 53.9062 33.3813 50.5768 33.3813 46.4844C33.3813 42.392 30.0519 39.0625 25.9595 39.0625ZM25.9595 50C24.021 50 22.4438 48.4229 22.4438 46.4844C22.4438 44.5459 24.021 42.9688 25.9595 42.9688C27.898 42.9688 29.4751 44.5459 29.4751 46.4844C29.4751 48.4229 27.898 50 25.9595 50Z" fill="#00515B"/>
<path d="M62.4175 39.0625C58.3251 39.0625 54.9956 42.392 54.9956 46.4844C54.9956 50.5768 58.3251 53.9062 62.4175 53.9062C66.5099 53.9062 69.8394 50.5768 69.8394 46.4844C69.8394 42.392 66.5099 39.0625 62.4175 39.0625ZM62.4175 50C60.479 50 58.9019 48.4229 58.9019 46.4844C58.9019 44.5459 60.479 42.9688 62.4175 42.9688C64.356 42.9688 65.9331 44.5459 65.9331 46.4844C65.9331 48.4229 64.356 50 62.4175 50Z" fill="#00515B"/>
<path d="M80.647 39.0625C76.5546 39.0625 73.2251 42.392 73.2251 46.4844C73.2251 50.5768 76.5546 53.9062 80.647 53.9062C84.7394 53.9062 88.0688 50.5768 88.0688 46.4844C88.0688 42.392 84.7394 39.0625 80.647 39.0625ZM80.647 50C78.7085 50 77.1313 48.4229 77.1313 46.4844C77.1313 44.5459 78.7085 42.9688 80.647 42.9688C82.5854 42.9688 84.1626 44.5459 84.1626 46.4844C84.1626 48.4229 82.5854 50 80.647 50Z" fill="#00515B"/>
<path d="M44.1885 39.0625C40.0961 39.0625 36.7666 42.392 36.7666 46.4844C36.7666 50.5768 40.0961 53.9062 44.1885 53.9062C48.2809 53.9062 51.6104 50.5768 51.6104 46.4844C51.6104 42.392 48.2809 39.0625 44.1885 39.0625ZM44.1885 50C42.25 50 40.6729 48.4229 40.6729 46.4844C40.6729 44.5459 42.25 42.9688 44.1885 42.9688C46.127 42.9688 47.7041 44.5459 47.7041 46.4844C47.7041 48.4229 46.127 50 44.1885 50Z" fill="#00515B"/>
<path d="M24.6296 68.6775C23.8667 67.9148 22.6304 67.9148 21.8673 68.6775L15.5067 75.0382L13.3331 72.8646C12.5702 72.1019 11.3339 72.1019 10.5708 72.8646C9.80811 73.6273 9.80811 74.864 10.5708 75.6269L14.1257 79.1814C14.4921 79.5476 14.9888 79.7535 15.5067 79.7535C16.0247 79.7535 16.5214 79.5476 16.8878 79.1814L24.6296 71.4396C25.3923 70.6769 25.3923 69.4402 24.6296 68.6775Z" fill="#00515B"/>
</svg>
