<svg width="119" height="100" viewBox="0 0 119 100" fill="none" xmlns="http://www.w3.org/2000/svg">
<path d="M86.7977 93.9355H32.3379C31.4039 93.9355 30.6481 93.1806 30.6481 92.2457C30.6481 91.3109 31.4039 90.5559 32.3379 90.5559H86.7977C87.7325 90.5559 88.4875 91.3109 88.4875 92.2457C88.4875 93.1806 87.7325 93.9355 86.7977 93.9355Z" fill="#00515B"/>
<path d="M49.8113 93.9355C48.8764 93.9355 48.1215 93.1806 48.1215 92.2457V76.1404C48.1215 75.2055 48.8764 74.4506 49.8113 74.4506C50.7453 74.4506 51.5011 75.2055 51.5011 76.1404V92.2457C51.5011 93.1806 50.7453 93.9355 49.8113 93.9355Z" fill="#00515B"/>
<path d="M67.7468 93.9355C66.812 93.9355 66.057 93.1806 66.057 92.2457V76.1404C66.057 75.2055 66.812 74.4506 67.7468 74.4506C68.6817 74.4506 69.4366 75.2055 69.4366 76.1404V92.2457C69.4366 93.1806 68.6817 93.9355 67.7468 93.9355Z" fill="#00515B"/>
<path d="M110.31 64.3347H8.92054C7.98569 64.3347 7.23071 63.5797 7.23071 62.6449V10.4228C7.23071 8.02009 9.15735 6.06458 11.5229 6.06458H107.614C109.752 6.06458 111.527 7.65621 111.855 9.73467C111.948 9.94589 112 10.1794 112 10.4228V62.6449C112 63.5797 111.245 64.3347 110.31 64.3347ZM10.6104 60.955H108.62V10.9484C108.561 10.7826 108.527 10.6068 108.527 10.4228C108.527 9.81965 108.054 9.44423 107.614 9.44423H11.5229C10.9586 9.44423 10.6104 9.9525 10.6104 10.4228V60.955ZM111.907 10.4228H111.924H111.907Z" fill="#00515B"/>
<path d="M107.614 77.8302H11.5229C9.15735 77.8302 7.23071 75.8763 7.23071 73.4736V62.6465C7.23071 61.7125 7.98569 60.9567 8.92054 60.9567H110.31C111.245 60.9567 112 61.7125 112 62.6465V73.4736C111.843 75.9621 109.918 77.8302 107.614 77.8302ZM10.6104 64.3347V73.4719C10.6104 74.0751 11.0832 74.448 11.5229 74.448H107.614C108.203 74.448 108.588 73.896 108.624 73.3622L108.62 64.3347H10.6104Z" fill="#00515B"/>
<path d="M34.1343 58.4055C30.3677 58.4055 27.3024 55.2808 27.3024 51.4416C27.3024 47.6024 30.366 44.4777 34.1343 44.4777C37.9026 44.4777 40.9678 47.6024 40.9678 51.4416C40.9678 55.2808 37.9009 58.4055 34.1343 58.4055ZM34.1343 47.8557C32.2299 47.8557 30.682 49.463 30.682 51.4399C30.682 53.4169 32.2299 55.0242 34.1343 55.0242C36.0386 55.0242 37.5882 53.4169 37.5882 51.4399C37.5882 49.463 36.0386 47.8557 34.1343 47.8557Z" fill="#00515B"/>
<path d="M51.0837 33.5936C47.3171 33.5936 44.2501 30.4689 44.2501 26.6296C44.2501 22.7921 47.3154 19.6674 51.0837 19.6674C54.852 19.6674 57.9156 22.7921 57.9156 26.6296C57.9156 30.4689 54.852 33.5936 51.0837 33.5936ZM51.0837 23.047C49.1793 23.047 47.6298 24.6543 47.6298 26.6296C47.6298 28.6066 49.1793 30.2139 51.0837 30.2139C52.988 30.2139 54.5359 28.6066 54.5359 26.6296C54.5359 24.6543 52.988 23.047 51.0837 23.047Z" fill="#00515B"/>
<path d="M52.2034 32.36L54.6308 30.0084L63.7854 39.4551L61.358 41.8067L52.2034 32.36Z" fill="#00515B"/>
<path d="M35.3447 46.958L47.6166 30.4203L50.3295 32.4336L38.0577 48.9704L35.3447 46.958Z" fill="#00515B"/>
<path d="M67.6238 38.4279L80.243 21.8844L82.9304 23.934L70.3112 40.4774L67.6238 38.4279Z" fill="#00515B"/>
<path d="M85.0964 25.9233C81.3298 25.9233 78.2628 22.7987 78.2628 18.9594C78.2628 15.1202 81.3298 11.9955 85.0964 11.9955C88.863 11.9955 91.9283 15.1202 91.9283 18.9594C91.9283 22.7987 88.8647 25.9233 85.0964 25.9233ZM85.0964 15.3751C83.192 15.3751 81.6425 16.9824 81.6425 18.9594C81.6425 20.9364 83.192 22.5437 85.0964 22.5437C87.0007 22.5437 88.5486 20.9364 88.5486 18.9594C88.5486 16.9824 87.0007 15.3751 85.0964 15.3751Z" fill="#00515B"/>
<path d="M65.694 50.9738C61.9273 50.9738 58.8621 47.8491 58.8621 44.0098C58.8621 40.1706 61.9257 37.0459 65.694 37.0459C69.4623 37.0459 72.5275 40.1706 72.5275 44.0098C72.5275 47.8491 69.4606 50.9738 65.694 50.9738ZM65.694 40.4255C63.7896 40.4255 62.2417 42.0329 62.2417 44.0098C62.2417 45.9868 63.7896 47.5941 65.694 47.5941C67.5983 47.5941 69.1479 45.9868 69.1479 44.0098C69.1479 42.0329 67.5983 40.4255 65.694 40.4255Z" fill="#00515B"/>
</svg>
