<svg width="100" height="100" viewBox="0 0 100 100" fill="none" xmlns="http://www.w3.org/2000/svg">
<path d="M70.8365 50.4588L70.8452 50.4588L70.8539 50.4581C71.1584 50.4351 71.4509 50.3295 71.6998 50.1527C71.9188 50.0139 72.1011 49.8242 72.2312 49.5999C72.3626 49.3733 72.4369 49.1181 72.4475 48.8563L72.4477 48.8564V48.8462L72.4477 27.5934L72.4477 27.5922C72.4462 27.2905 72.3601 26.9953 72.1992 26.7401C72.0382 26.4849 71.809 26.28 71.5374 26.1486L71.5366 26.1482L51.7564 16.6647L51.7564 16.6646L51.7502 16.6618C51.5183 16.5583 51.2651 16.5114 51.0116 16.525C50.758 16.5386 50.5113 16.6123 50.2918 16.74L50.2917 16.7398L50.2835 16.745C50.0537 16.8909 49.8642 17.0923 49.7326 17.3307C49.6009 17.569 49.5313 17.8366 49.5302 18.1089H49.5302V18.1099L49.5301 39.3517L49.5302 39.3529C49.5317 39.6546 49.6178 39.9498 49.7787 40.205L49.7787 40.205C49.9397 40.4602 50.1689 40.6651 50.4405 40.7965L50.4408 40.7966L70.1301 50.2897C70.3485 50.4021 70.5908 50.4602 70.8365 50.4588ZM52.7115 20.6727L69.2225 28.6296V46.2506L52.7115 38.3044V20.6727Z" fill="#00515B" stroke="#00515B" stroke-width="0.5"/>
<path d="M70.1331 29.0494L70.1331 29.0494L50.4408 19.5549L50.4405 19.5547C50.1669 19.4224 49.9363 19.2154 49.7753 18.9577C49.6142 18.7 49.5292 18.402 49.5302 18.0981M70.1331 29.0494L49.7802 18.0989M70.1331 29.0494L70.1364 29.0509C70.3551 29.1525 70.5933 29.2054 70.8345 29.206L70.8358 29.206C71.0769 29.2054 71.3151 29.1525 71.5338 29.0509L71.5338 29.0509L71.5366 29.0496L91.3087 19.57C91.5975 19.4552 91.8461 19.2578 92.0233 19.0023C92.2024 18.7442 92.3004 18.4386 92.3049 18.1244L92.3049 18.1216C92.3058 17.8177 92.2208 17.5198 92.0598 17.2621C91.8987 17.0043 91.6681 16.7974 91.3945 16.6651L91.3938 16.6647L71.6136 7.17022L71.6136 7.17022L71.6124 7.16965C71.3952 7.06679 71.1579 7.01343 70.9175 7.01343C70.6772 7.01343 70.4398 7.06679 70.2226 7.16966L70.2226 7.16965L70.2215 7.17017L50.4417 16.6535M70.1331 29.0494L50.4417 16.6535M49.5302 18.0981L49.7802 18.0989M49.5302 18.0981C49.5302 18.0984 49.5302 18.0986 49.5302 18.0989L49.7802 18.0989M49.5302 18.0981C49.5303 17.796 49.6159 17.5001 49.7771 17.2445C49.9383 16.9888 50.1686 16.784 50.4413 16.6537L50.5494 16.8791M49.7802 18.0989C49.7801 17.8437 49.8524 17.5937 49.9885 17.3779C50.1246 17.162 50.3191 16.9891 50.5494 16.8791M50.5494 16.8791L50.4417 16.6535M50.5494 16.8791L50.4417 16.6535M70.8353 25.8105L54.8188 18.0993L70.8459 10.4092L86.8624 18.1205L70.8353 25.8105Z" fill="#00515B" stroke="#00515B" stroke-width="0.5"/>
<path d="M70.8319 50.4588L70.8338 50.4588C71.0794 50.4601 71.3217 50.4021 71.54 50.2897L91.306 40.7968L91.3067 40.7965C91.5783 40.6651 91.8075 40.4602 91.9685 40.205C92.1294 39.9498 92.2155 39.6546 92.217 39.3529V39.3516L92.217 18.1099L92.217 18.1088C92.2159 17.8366 92.1463 17.569 92.0146 17.3306C91.883 17.0923 91.6935 16.8909 91.4637 16.745L91.4637 16.745L91.4616 16.7437C91.2311 16.6005 90.968 16.5181 90.6969 16.5045C90.4262 16.4908 90.1565 16.5461 89.9129 16.6651C89.9126 16.6653 89.9124 16.6654 89.9121 16.6656L70.134 26.17C70.1339 26.1701 70.1337 26.1702 70.1335 26.1703C69.8608 26.3006 69.6306 26.5054 69.4694 26.761L69.4694 26.761C69.3081 27.0168 69.2225 27.313 69.2225 27.6154V48.9011H69.2223L69.2227 48.9113C69.2334 49.173 69.3076 49.4282 69.4391 49.6548L69.4391 49.6548C69.5705 49.8814 69.7551 50.0726 69.977 50.2118L69.9797 50.2134C70.2367 50.3701 70.531 50.4549 70.8319 50.4588ZM88.9588 20.6727V38.3047L72.4478 46.2829V28.6296L88.9588 20.6727Z" fill="#00515B" stroke="#00515B" stroke-width="0.5"/>
<path d="M60.943 24.4247L60.9512 24.4255L60.9595 24.4257C61.1883 24.4326 61.4162 24.3931 61.6294 24.3098L61.6381 24.3064L61.6465 24.3024L81.4267 14.8188L81.4431 14.811L81.4582 14.8008C81.7736 14.5886 82.0039 14.2717 82.1084 13.9062C82.213 13.5406 82.185 13.1499 82.0294 12.803C81.8738 12.4561 81.6007 12.1753 81.2582 12.0102C80.9158 11.8451 80.526 11.8063 80.1577 11.9007L80.1338 11.9068L80.1116 11.9174L60.3314 21.401L60.325 21.404L60.3187 21.4075C60.0172 21.5739 59.7768 21.8324 59.6328 22.1453C59.4888 22.4582 59.4488 22.8089 59.5186 23.1462C59.5883 23.4835 59.7643 23.7896 60.0206 24.0196C60.2769 24.2497 60.6001 24.3916 60.943 24.4247Z" fill="#00515B" stroke="#00515B" stroke-width="0.5"/>
<path d="M63.6135 33.7775L63.6135 33.7776L63.6179 33.7775C63.98 33.7738 64.3303 33.6484 64.6125 33.4214C64.8946 33.1944 65.0921 32.879 65.1732 32.5261C65.2543 32.1732 65.2143 31.8033 65.0595 31.4759C64.9048 31.1485 64.6444 30.8827 64.3202 30.7213L64.3202 30.7213L64.317 30.7198L58.4897 27.9213C58.2995 27.8138 58.0894 27.7461 57.8722 27.7223C57.6519 27.6981 57.4289 27.7196 57.2172 27.7854C57.0056 27.8513 56.8098 27.96 56.642 28.105C56.4743 28.2499 56.3382 28.4278 56.2423 28.6277C56.1464 28.8275 56.0928 29.045 56.0847 29.2665C56.0766 29.488 56.1143 29.7088 56.1954 29.9151C56.2764 30.1214 56.3992 30.3088 56.5559 30.4656C56.7104 30.62 56.8946 30.7415 57.0974 30.8226L62.9136 33.621L62.9136 33.621L62.9178 33.6229C63.1362 33.723 63.3733 33.7757 63.6135 33.7775Z" fill="#00515B" stroke="#00515B" stroke-width="0.5"/>
<path d="M33.7252 12.4616L33.9501 12.5708C34.535 11.3662 35.4471 10.3506 36.5821 9.64004C37.717 8.92947 39.029 8.55264 40.3681 8.55264C41.7071 8.55264 43.0191 8.92947 44.1541 9.64004C45.2891 10.3506 46.2011 11.3662 46.7861 12.5708L46.7857 12.5709L46.7921 12.5824C46.9927 12.946 47.326 13.2183 47.7224 13.3423C48.1188 13.4663 48.5478 13.4326 48.92 13.2482C49.2922 13.0638 49.5788 12.7429 49.7203 12.3524C49.8617 11.9618 49.847 11.5318 49.6792 11.1518L49.6794 11.1517L49.6751 11.143C48.8573 9.46915 47.6028 8.04705 46.044 7.02682C44.4852 6.00659 42.6799 5.42605 40.8187 5.34648C38.9574 5.26691 37.1091 5.69125 35.4689 6.57472C33.8705 7.43571 32.5275 8.70162 31.5737 10.2445H25.5384C25.1107 10.2445 24.7005 10.4144 24.3981 10.7169C24.0957 11.0193 23.9258 11.4295 23.9258 11.8572L23.9258 24.1759L23.9258 24.1778C23.929 24.5937 24.0939 24.9919 24.3855 25.2884C24.6771 25.5849 25.0726 25.7563 25.4884 25.7664L25.4884 25.7665H25.4945H41.978C42.4057 25.7665 42.8159 25.5966 43.1183 25.2942C43.4207 24.9918 43.5906 24.5816 43.5906 24.1539C43.5906 23.7262 43.4207 23.316 43.1183 23.0136C42.8159 22.7112 42.4057 22.5412 41.978 22.5412H27.1511V13.4698H32.5044C32.8057 13.4723 33.1015 13.3892 33.3574 13.2301C33.6137 13.0708 33.8193 12.842 33.9504 12.5702L33.7252 12.4616ZM33.7252 12.4616C34.3306 11.2148 35.2747 10.1636 36.4494 9.42814C37.6241 8.69267 38.9821 8.30264 40.3681 8.30264C41.754 8.30264 43.112 8.69267 44.2868 9.42814C45.4615 10.1636 46.4055 11.2148 47.0109 12.4616L32.5054 13.2198C32.7597 13.2221 33.0095 13.1521 33.2254 13.0178C33.4414 12.8836 33.6148 12.6906 33.7252 12.4616Z" fill="#00515B" stroke="#00515B" stroke-width="0.5"/>
<path d="M69.4175 94.6676H69.4179C71.6923 94.6646 73.8728 93.7598 75.4811 92.1515C77.0894 90.5432 77.9942 88.3627 77.9972 86.0883V86.0879V54.3075C78.0154 54.0883 77.9885 53.8676 77.9181 53.6591C77.8465 53.4468 77.7315 53.2519 77.5804 53.0865C77.4293 52.9212 77.2455 52.7892 77.0405 52.6988C76.8356 52.6085 76.614 52.5619 76.3901 52.5619C76.1661 52.5619 75.9446 52.6085 75.7396 52.6988C75.5347 52.7892 75.3508 52.9212 75.1997 53.0865C75.0486 53.2519 74.9336 53.4468 74.862 53.6591C74.7917 53.8676 74.7648 54.0883 74.7829 54.3075V86.1099C74.7829 87.5329 74.2176 88.8976 73.2114 89.9038C72.2052 90.91 70.8405 91.4753 69.4175 91.4753H11.0631V18.3489H25.5277C25.7469 18.3671 25.9676 18.3402 26.1761 18.2698C26.3883 18.1983 26.5833 18.0832 26.7486 17.9321C26.9139 17.781 27.046 17.5972 27.1363 17.3922L26.9076 17.2914L27.1363 17.3922C27.2267 17.1873 27.2733 16.9658 27.2733 16.7418C27.2733 16.5178 27.2267 16.2963 27.1363 16.0914L26.9076 16.1922L27.1363 16.0914C27.046 15.8864 26.9139 15.7025 26.7486 15.5514C26.5833 15.4003 26.3883 15.2853 26.1761 15.2137C25.9676 15.1434 25.7469 15.1165 25.5277 15.1346H9.45051C9.23575 15.1345 9.02321 15.1776 8.82544 15.2613C8.62765 15.3451 8.44871 15.4677 8.29928 15.622C8.14986 15.7763 8.03299 15.9591 7.95563 16.1594C7.87878 16.3585 7.84249 16.5709 7.84886 16.7841V93.066C7.84886 93.2763 7.89029 93.4846 7.97078 93.6789C8.05127 93.8732 8.16925 94.0498 8.31797 94.1985C8.4667 94.3472 8.64326 94.4652 8.83758 94.5457C9.0319 94.6262 9.24018 94.6676 9.45051 94.6676H69.4175Z" fill="#00515B" stroke="#00515B" stroke-width="0.5"/>
<path d="M23.6393 55.7995L23.6373 55.7995L23.5824 55.7995H23.5787L23.5787 55.7995C23.3211 55.7956 23.0682 55.7297 22.8415 55.6073C22.6151 55.485 22.4215 55.31 22.2771 55.0971C22.2769 55.0969 22.2767 55.0966 22.2765 55.0963L19.3231 50.8084C19.1643 50.6455 19.0416 50.4506 18.9634 50.2367C18.8824 50.0153 18.8509 49.7788 18.8712 49.5438C18.8915 49.3089 18.9631 49.0813 19.0809 48.877C19.1987 48.6728 19.3599 48.4968 19.5531 48.3616L19.6964 48.5664L19.5531 48.3616C19.7463 48.2264 19.9667 48.1352 20.199 48.0944C20.4312 48.0536 20.6696 48.0643 20.8973 48.1256C21.125 48.1869 21.3364 48.2974 21.5168 48.4493C21.6915 48.5965 21.8329 48.7791 21.9317 48.9849L23.6659 51.5074L29.8558 43.9585C29.9823 43.7798 30.1439 43.6287 30.3308 43.5145M23.6393 55.7995L30.3308 43.5145C30.3308 43.5145 30.3308 43.5145 30.3308 43.5145M23.6393 55.7995C23.8764 55.7976 24.1103 55.7446 24.325 55.6439C24.5397 55.5433 24.7301 55.3975 24.8832 55.2164L24.8832 55.2164L24.8866 55.2122L32.3417 46.0004M23.6393 55.7995L32.3417 46.0004M30.3308 43.5145L30.4612 43.7278M30.3308 43.5145L30.0549 44.1099C30.1626 43.9559 30.3009 43.8258 30.4612 43.7278M30.3308 43.5145C30.5206 43.3985 30.7322 43.3231 30.9525 43.2928C31.1728 43.2626 31.397 43.2782 31.611 43.3388C31.8249 43.3993 32.0241 43.5035 32.1959 43.6447C32.3677 43.7859 32.5084 43.9611 32.6092 44.1593C32.71 44.3575 32.7688 44.5744 32.7817 44.7964C32.7947 45.0184 32.7616 45.2407 32.6846 45.4493C32.6088 45.6544 32.4921 45.8419 32.3417 46.0004M30.3308 43.5145L32.3417 46.0004M30.4612 43.7278C30.6215 43.6298 30.8004 43.566 30.9865 43.5405C31.1727 43.5149 31.3621 43.5282 31.5429 43.5793C31.7237 43.6305 31.892 43.7185 32.0371 43.8378M30.4612 43.7278L32.0371 43.8378M32.0371 43.8378C32.1823 43.9571 32.3012 44.1052 32.3864 44.2727C32.4716 44.4401 32.5212 44.6234 32.5322 44.811C32.5431 44.9986 32.5152 45.1864 32.4501 45.3626C32.385 45.5389 32.2841 45.6998 32.1538 45.8352M32.0371 43.8378L24.2189 55.4176C24.401 55.3322 24.5624 55.2085 24.6923 55.055L32.1538 45.8352M32.1538 45.8352L32.334 46.0085C32.3366 46.0058 32.3391 46.0031 32.3417 46.0004M32.1538 45.8352L32.3482 45.9925L32.3417 46.0004" fill="#00515B" stroke="#00515B" stroke-width="0.5"/>
<path d="M23.6373 69.3379V69.338L23.6423 69.3379C23.8834 69.3331 24.1204 69.2746 24.3361 69.1668L24.2242 68.9432L24.3361 69.1668C24.5509 69.0594 24.7392 68.9056 24.8874 68.7167L32.4242 59.4989L32.4243 59.499L32.4275 59.4948C32.6943 59.1541 32.8147 58.7213 32.7624 58.2917C32.7101 57.8622 32.4893 57.471 32.1485 57.2043C31.8078 56.9375 31.375 56.8171 30.9455 56.8694C30.5169 56.9216 30.1265 57.1416 29.8598 57.481L23.6657 65.0457L21.9305 62.5217C21.829 62.3184 21.6856 62.1388 21.5098 61.9948C21.3288 61.8465 21.1178 61.7394 20.8913 61.6809C20.6648 61.6223 20.4283 61.6138 20.1981 61.6558C19.968 61.6978 19.7498 61.7894 19.5586 61.9242C19.3674 62.059 19.2078 62.2337 19.0909 62.4364C18.974 62.639 18.9026 62.8647 18.8816 63.0977C18.8606 63.3307 18.8906 63.5654 18.9695 63.7857C19.0458 63.9989 19.1661 64.1935 19.3225 64.357L22.2777 68.6366L22.2782 68.6373C22.4245 68.8475 22.6181 69.0205 22.8434 69.1421C23.0687 69.2638 23.3195 69.3309 23.5755 69.3378L23.5755 69.3379H23.5823H23.6373Z" fill="#00515B" stroke="#00515B" stroke-width="0.5"/>
<path d="M23.6445 82.8764H23.6373H23.5823H23.5811C23.3241 82.8751 23.0713 82.8115 22.8442 82.6912C22.6173 82.5709 22.4228 82.3975 22.2775 82.1857C22.2774 82.1856 22.2773 82.1855 22.2773 82.1853L19.3225 77.9064C19.1661 77.7429 19.0458 77.5483 18.9695 77.3351C18.8906 77.1149 18.8606 76.8801 18.8816 76.6471C18.9026 76.4141 18.974 76.1885 19.0909 75.9858C19.2078 75.7832 19.3674 75.6084 19.5586 75.4736L19.6997 75.6738L19.5586 75.4736C19.7498 75.3388 19.968 75.2472 20.1981 75.2052C20.4283 75.1632 20.6648 75.1717 20.8913 75.2303C21.1178 75.2888 21.3288 75.3959 21.5098 75.5442C21.6856 75.6883 21.829 75.8679 21.9305 76.0711L23.6657 78.5951L29.8557 71.0355C29.9822 70.8568 30.1438 70.7057 30.3308 70.5914M23.6445 82.8764L30.3308 70.5914C30.3308 70.5914 30.3308 70.5914 30.3308 70.5914M23.6445 82.8764L23.6517 82.876C23.8742 82.8631 24.0917 82.8045 24.2906 82.704C24.4894 82.6034 24.6655 82.463 24.8077 82.2914L24.8088 82.2901L32.3412 73.0778M23.6445 82.8764L32.3412 73.0778M30.3308 70.5914L30.4611 70.8047M30.3308 70.5914L30.0549 71.1868C30.1625 71.0328 30.3008 70.9027 30.4611 70.8047M30.3308 70.5914C30.5205 70.4754 30.7322 70.4 30.9525 70.3697C31.1728 70.3395 31.397 70.3551 31.6109 70.4157C31.8249 70.4762 32.024 70.5804 32.1958 70.7216C32.3676 70.8628 32.5083 71.038 32.6091 71.2362C32.71 71.4344 32.7687 71.6513 32.7817 71.8733C32.7947 72.0953 32.7616 72.3176 32.6845 72.5262C32.6087 72.7315 32.4919 72.9192 32.3412 73.0778M30.3308 70.5914L32.3412 73.0778M30.4611 70.8047C30.6215 70.7067 30.8003 70.643 30.9865 70.6174C31.1726 70.5918 31.3621 70.6051 31.5428 70.6562C31.7236 70.7074 31.8919 70.7954 32.0371 70.9147C32.1822 71.034 32.3011 71.1821 32.3863 71.3495M30.4611 70.8047L32.3863 71.3495M32.3863 71.3495C32.4715 71.517 32.5211 71.7003 32.5321 71.8879C32.5431 72.0755 32.5151 72.2633 32.45 72.4395C32.3849 72.6158 32.284 72.7767 32.1538 72.9121L32.3863 71.3495Z" fill="#00515B" stroke="#00515B" stroke-width="0.5"/>
<path d="M56.5494 55.7995H56.5606L56.5718 55.7985C56.9728 55.7624 57.3458 55.5775 57.6175 55.2803C57.8891 54.9831 58.0397 54.595 58.0397 54.1923C58.0397 53.7897 57.8891 53.4016 57.6175 53.1044C57.3458 52.8072 56.9728 52.6223 56.5718 52.5862L56.5606 52.5852H56.5494H37.5054H37.4942L37.483 52.5862C37.082 52.6223 36.7089 52.8072 36.4373 53.1044C36.1656 53.4016 36.015 53.7897 36.015 54.1923C36.015 54.595 36.1656 54.9831 36.4373 55.2803C36.7089 55.5775 37.082 55.7624 37.483 55.7985L37.4942 55.7995H37.5054H56.5494Z" fill="#00515B" stroke="#00515B" stroke-width="0.5"/>
<path d="M37.5055 68.1072H65.8242C66.2518 68.1072 66.662 67.9373 66.9645 67.6349C67.2669 67.3325 67.4368 66.9223 67.4368 66.4946C67.4368 66.0669 67.2669 65.6567 66.9645 65.3543C66.662 65.0519 66.2518 64.882 65.8242 64.882H37.5055C37.0778 64.882 36.6676 65.0519 36.3652 65.3543C36.0627 65.6567 35.8928 66.0669 35.8928 66.4946C35.8928 66.9223 36.0627 67.3325 36.3652 67.6349C36.6676 67.9373 37.0778 68.1072 37.5055 68.1072Z" fill="#00515B" stroke="#00515B" stroke-width="0.5"/>
<path d="M37.483 80.4028L37.4942 80.4038H37.5054H65.8133C66.0326 80.422 66.2532 80.3951 66.4618 80.3248C66.674 80.2532 66.869 80.1382 67.0343 79.9871L66.8656 79.8025L67.0343 79.9871C67.1996 79.836 67.3316 79.6521 67.422 79.4471L67.1932 79.3463L67.422 79.4471C67.5123 79.2422 67.559 79.0207 67.559 78.7967C67.559 78.5727 67.5123 78.3512 67.422 78.1463L67.1932 78.2471L67.422 78.1463C67.3316 77.9413 67.1996 77.7575 67.0343 77.6064L66.8668 77.7896L67.0343 77.6064C66.869 77.4553 66.674 77.3403 66.4618 77.2687C66.2532 77.1983 66.0326 77.1714 65.8133 77.1896H37.5054H37.4942L37.483 77.1906C37.082 77.2267 36.7089 77.4115 36.4373 77.7088C36.1656 78.006 36.015 78.3941 36.015 78.7967C36.015 79.1994 36.1656 79.5874 36.4373 79.8847C36.7089 80.1819 37.0819 80.3667 37.483 80.4028Z" fill="#00515B" stroke="#00515B" stroke-width="0.5"/>
</svg>
