<svg width="100" height="100" viewBox="0 0 100 100" fill="none" xmlns="http://www.w3.org/2000/svg">
<path d="M57.8125 84.375H54.6875V69.0625C54.6875 68.6481 54.5229 68.2507 54.2299 67.9576C53.9368 67.6646 53.5394 67.5 53.125 67.5C52.7106 67.5 52.3132 67.6646 52.0201 67.9576C51.7271 68.2507 51.5625 68.6481 51.5625 69.0625V84.375H10.9375V53.125H23.9375C24.3519 53.125 24.7493 52.9604 25.0424 52.6674C25.3354 52.3743 25.5 51.9769 25.5 51.5625C25.5 51.1481 25.3354 50.7507 25.0424 50.4576C24.7493 50.1646 24.3519 50 23.9375 50H9.375C8.9606 50 8.56317 50.1646 8.27015 50.4576C7.97712 50.7507 7.8125 51.1481 7.8125 51.5625V84.375H4.6875C4.2731 84.375 3.87567 84.5396 3.58265 84.8326C3.28962 85.1257 3.125 85.5231 3.125 85.9375V89.0625C3.125 91.1345 3.9481 93.1216 5.41323 94.5868C6.87836 96.0519 8.8655 96.875 10.9375 96.875H51.5625C53.6345 96.875 55.6216 96.0519 57.0868 94.5868C58.5519 93.1216 59.375 91.1345 59.375 89.0625V85.9375C59.375 85.5231 59.2104 85.1257 58.9174 84.8326C58.6243 84.5396 58.2269 84.375 57.8125 84.375ZM56.25 89.0625C56.25 90.3057 55.7561 91.498 54.8771 92.3771C53.998 93.2561 52.8057 93.75 51.5625 93.75H48.4375V92.1875C48.4375 91.7731 48.2729 91.3757 47.9799 91.0826C47.6868 90.7896 47.2894 90.625 46.875 90.625C46.4606 90.625 46.0632 90.7896 45.7701 91.0826C45.4771 91.3757 45.3125 91.7731 45.3125 92.1875V93.75H17.1875V92.1875C17.1875 91.7731 17.0229 91.3757 16.7299 91.0826C16.4368 90.7896 16.0394 90.625 15.625 90.625C15.2106 90.625 14.8132 90.7896 14.5201 91.0826C14.2271 91.3757 14.0625 91.7731 14.0625 92.1875V93.75H10.9375C9.6943 93.75 8.50201 93.2561 7.62294 92.3771C6.74386 91.498 6.25 90.3057 6.25 89.0625V87.5H56.25V89.0625Z" fill="#00515B"/>
<path d="M84.375 12.5H87.5C87.9144 12.5 88.3118 12.3354 88.6049 12.0424C88.8979 11.7493 89.0625 11.3519 89.0625 10.9375C89.0625 10.5231 88.8979 10.1257 88.6049 9.83265C88.3118 9.53962 87.9144 9.375 87.5 9.375H84.375C83.1318 9.375 81.9395 9.86886 81.0604 10.7479C80.1814 11.627 79.6875 12.8193 79.6875 14.0625V15.625H78.125C77.7106 15.625 77.3132 15.7896 77.0201 16.0826C76.7271 16.3757 76.5625 16.7731 76.5625 17.1875C76.5625 17.6019 76.7271 17.9993 77.0201 18.2924C77.3132 18.5854 77.7106 18.75 78.125 18.75H79.6875V23.4375C79.6875 23.8519 79.8521 24.2493 80.1451 24.5424C80.4382 24.8354 80.8356 25 81.25 25C81.6644 25 82.0618 24.8354 82.3549 24.5424C82.6479 24.2493 82.8125 23.8519 82.8125 23.4375V18.75H84.375C84.7894 18.75 85.1868 18.5854 85.4799 18.2924C85.7729 17.9993 85.9375 17.6019 85.9375 17.1875C85.9375 16.7731 85.7729 16.3757 85.4799 16.0826C85.1868 15.7896 84.7894 15.625 84.375 15.625H82.8125V14.0625C82.8125 13.6481 82.9771 13.2507 83.2701 12.9576C83.5632 12.6646 83.9606 12.5 84.375 12.5Z" fill="#00515B"/>
<path d="M92.1875 3.125H73.4375C72.1943 3.125 71.002 3.61886 70.1229 4.49794C69.2439 5.37701 68.75 6.5693 68.75 7.8125V10.9375C68.75 11.3519 68.9146 11.7493 69.2076 12.0424C69.5007 12.3354 69.8981 12.5 70.3125 12.5C70.7269 12.5 71.1243 12.3354 71.4174 12.0424C71.7104 11.7493 71.875 11.3519 71.875 10.9375V7.8125C71.875 7.3981 72.0396 7.00067 72.3326 6.70765C72.6257 6.41462 73.0231 6.25 73.4375 6.25H92.1875C92.6019 6.25 92.9993 6.41462 93.2924 6.70765C93.5854 7.00067 93.75 7.3981 93.75 7.8125V26.5625C93.75 26.9769 93.5854 27.3743 93.2924 27.6674C92.9993 27.9604 92.6019 28.125 92.1875 28.125H73.4375C73.0231 28.125 72.6257 27.9604 72.3326 27.6674C72.0396 27.3743 71.875 26.9769 71.875 26.5625V17.1875C71.875 16.7731 71.7104 16.3757 71.4174 16.0826C71.1243 15.7896 70.7269 15.625 70.3125 15.625C69.8981 15.625 69.5007 15.7896 69.2076 16.0826C68.9146 16.3757 68.75 16.7731 68.75 17.1875V26.5625C68.75 27.8057 69.2439 28.998 70.1229 29.8771C71.002 30.7561 72.1943 31.25 73.4375 31.25H92.1875C93.4307 31.25 94.623 30.7561 95.5021 29.8771C96.3811 28.998 96.875 27.8057 96.875 26.5625V7.8125C96.875 6.5693 96.3811 5.37701 95.5021 4.49794C94.623 3.61886 93.4307 3.125 92.1875 3.125Z" fill="#00515B"/>
<path d="M76.5625 65.625C76.5625 66.8611 76.9291 68.0695 77.6158 69.0973C78.3026 70.1251 79.2787 70.9262 80.4207 71.3993C81.5628 71.8723 82.8194 71.9961 84.0318 71.7549C85.2442 71.5138 86.3578 70.9185 87.2319 70.0444C88.106 69.1703 88.7013 68.0567 88.9424 66.8443C89.1836 65.6319 89.0598 64.3753 88.5868 63.2332C88.1137 62.0912 87.3126 61.1151 86.2848 60.4283C85.257 59.7416 84.0486 59.375 82.8125 59.375C81.1549 59.375 79.5652 60.0335 78.3931 61.2056C77.221 62.3777 76.5625 63.9674 76.5625 65.625ZM85.9375 65.625C85.9375 66.2431 85.7542 66.8473 85.4109 67.3612C85.0675 67.8751 84.5794 68.2756 84.0084 68.5121C83.4374 68.7487 82.809 68.8105 82.2028 68.69C81.5967 68.5694 81.0398 68.2718 80.6028 67.8347C80.1658 67.3977 79.8681 66.8409 79.7475 66.2347C79.627 65.6285 79.6889 65.0001 79.9254 64.4291C80.1619 63.8581 80.5624 63.37 81.0763 63.0267C81.5903 62.6833 82.1944 62.5 82.8125 62.5C83.6413 62.5 84.4362 62.8292 85.0222 63.4153C85.6083 64.0013 85.9375 64.7962 85.9375 65.625Z" fill="#00515B"/>
<path d="M92.1875 51.5625H73.4375C72.1943 51.5625 71.002 52.0564 70.1229 52.9354C69.2439 53.8145 68.75 55.0068 68.75 56.25V75C68.75 76.2432 69.2439 77.4355 70.1229 78.3146C71.002 79.1936 72.1943 79.6875 73.4375 79.6875H92.1875C93.4307 79.6875 94.623 79.1936 95.5021 78.3146C96.3811 77.4355 96.875 76.2432 96.875 75V71.875C96.875 71.4606 96.7104 71.0632 96.4174 70.7701C96.1243 70.4771 95.7269 70.3125 95.3125 70.3125C94.8981 70.3125 94.5007 70.4771 94.2076 70.7701C93.9146 71.0632 93.75 71.4606 93.75 71.875V75C93.75 75.4144 93.5854 75.8118 93.2924 76.1049C92.9993 76.3979 92.6019 76.5625 92.1875 76.5625H73.4375C73.0231 76.5625 72.6257 76.3979 72.3326 76.1049C72.0396 75.8118 71.875 75.4144 71.875 75V56.25C71.875 55.8356 72.0396 55.4382 72.3326 55.1451C72.6257 54.8521 73.0231 54.6875 73.4375 54.6875H92.1875C92.6019 54.6875 92.9993 54.8521 93.2924 55.1451C93.5854 55.4382 93.75 55.8356 93.75 56.25V65.625C93.75 66.0394 93.9146 66.4368 94.2076 66.7299C94.5007 67.0229 94.8981 67.1875 95.3125 67.1875C95.7269 67.1875 96.1243 67.0229 96.4174 66.7299C96.7104 66.4368 96.875 66.0394 96.875 65.625V56.25C96.875 55.0068 96.3811 53.8145 95.5021 52.9354C94.623 52.0564 93.4307 51.5625 92.1875 51.5625Z" fill="#00515B"/>
<path d="M38.2344 21.6407C38.483 21.7948 38.77 21.876 39.0625 21.875C39.3071 21.8736 39.5479 21.8147 39.7656 21.7032L49.1406 17.0157C49.3966 16.8845 49.6114 16.6853 49.7613 16.44C49.9113 16.1946 49.9907 15.9126 49.9907 15.625C49.9907 15.3375 49.9113 15.0555 49.7613 14.8101C49.6114 14.5647 49.3966 14.3655 49.1406 14.2344L39.7656 9.54691C39.5278 9.42705 39.2632 9.36998 38.9971 9.38113C38.731 9.39228 38.4721 9.47127 38.2451 9.6106C38.0181 9.74993 37.8305 9.94498 37.7001 10.1772C37.5697 10.4095 37.5008 10.6712 37.5 10.9375V20.3125C37.4995 20.5781 37.5666 20.8394 37.6951 21.0717C37.8236 21.3041 38.0092 21.4999 38.2344 21.6407ZM40.625 13.4688L44.9375 15.625L40.625 17.7813V13.4688Z" fill="#00515B"/>
<path d="M42.1875 29.6875C44.9688 29.6875 47.6876 28.8628 50.0002 27.3175C52.3128 25.7723 54.1152 23.5761 55.1796 21.0065C56.2439 18.4369 56.5224 15.6094 55.9798 12.8815C55.4372 10.1537 54.0979 7.64799 52.1312 5.68132C50.1645 3.71464 47.6588 2.37532 44.931 1.83271C42.2031 1.29011 39.3756 1.56859 36.806 2.63295C34.2364 3.69731 32.0402 5.49973 30.495 7.8123C28.9498 10.1249 28.125 12.8437 28.125 15.625C28.125 19.3546 29.6066 22.9315 32.2438 25.5687C34.881 28.2059 38.4579 29.6875 42.1875 29.6875ZM42.1875 4.68751C44.3507 4.68751 46.4654 5.32898 48.2641 6.53081C50.0627 7.73264 51.4646 9.44084 52.2924 11.4394C53.1203 13.438 53.3369 15.6371 52.9148 17.7588C52.4928 19.8805 51.4511 21.8293 49.9215 23.359C48.3918 24.8886 46.443 25.9303 44.3213 26.3523C42.1996 26.7744 40.0005 26.5578 38.0019 25.7299C36.0033 24.9021 34.2951 23.5002 33.0933 21.7016C31.8915 19.9029 31.25 17.7882 31.25 15.625C31.25 12.7242 32.4023 9.9422 34.4535 7.89103C36.5047 5.83985 39.2867 4.68751 42.1875 4.68751Z" fill="#00515B"/>
<path d="M57.8125 35.9375C58.0551 35.9375 58.2943 35.881 58.5113 35.7726C58.7282 35.6641 58.917 35.5066 59.0625 35.3125L63.75 29.0625C63.9987 28.731 64.1054 28.3143 64.0468 27.904C63.9882 27.4938 63.769 27.1236 63.4375 26.875C63.106 26.6264 62.6893 26.5196 62.279 26.5782C61.8688 26.6368 61.4987 26.856 61.25 27.1875L56.5625 33.4375C56.3139 33.769 56.2071 34.1858 56.2657 34.596C56.3243 35.0062 56.5435 35.3764 56.875 35.625C57.1455 35.8279 57.4744 35.9375 57.8125 35.9375Z" fill="#00515B"/>
<path d="M61.25 41.5625C61.3955 41.7566 61.5843 41.9141 61.8012 42.0226C62.0182 42.131 62.2574 42.1875 62.5 42.1875C62.8381 42.1875 63.167 42.0779 63.4375 41.875L69.6875 37.1875C70.019 36.9389 70.2382 36.5687 70.2968 36.1585C70.3554 35.7482 70.2487 35.3315 70 35C69.7514 34.6685 69.3812 34.4493 68.971 34.3907C68.5608 34.3321 68.144 34.4389 67.8125 34.6875L61.5625 39.375C61.231 39.6237 61.0118 39.9938 60.9532 40.404C60.8946 40.8143 61.0014 41.231 61.25 41.5625Z" fill="#00515B"/>
<path d="M76.5625 45C76.5253 44.7929 76.4467 44.5954 76.3314 44.4193C76.216 44.2433 76.0663 44.0924 75.8912 43.9757C75.7161 43.8589 75.5192 43.7788 75.3124 43.74C75.1055 43.7012 74.893 43.7046 74.6875 43.75L66.875 45.3125C66.6698 45.3331 66.4706 45.3938 66.2889 45.4913C66.1072 45.5887 65.9465 45.7211 65.8159 45.8807C65.5522 46.203 65.4273 46.6169 65.4687 47.0313C65.5102 47.4457 65.7145 47.8266 66.0369 48.0904C66.3592 48.3541 66.7731 48.479 67.1875 48.4375H67.5L75.3125 46.875C75.5196 46.8379 75.7171 46.7593 75.8932 46.6439C76.0692 46.5286 76.2201 46.3789 76.3368 46.2038C76.4536 46.0287 76.5337 45.8318 76.5725 45.6249C76.6113 45.4181 76.6079 45.2055 76.5625 45Z" fill="#00515B"/>
<path d="M4.6875 45.3125H23.4375C23.8519 45.3125 24.2493 45.1479 24.5424 44.8549C24.8354 44.5618 25 44.1644 25 43.75V18.75C25 18.3356 24.8354 17.9382 24.5424 17.6451C24.2493 17.3521 23.8519 17.1875 23.4375 17.1875H4.6875C4.2731 17.1875 3.87567 17.3521 3.58265 17.6451C3.28962 17.9382 3.125 18.3356 3.125 18.75V43.75C3.125 44.1644 3.28962 44.5618 3.58265 44.8549C3.87567 45.1479 4.2731 45.3125 4.6875 45.3125ZM6.25 20.3125H21.875V42.1875H6.25V20.3125Z" fill="#00515B"/>
<path d="M17.1875 23.4375H14.0625C13.6481 23.4375 13.2507 23.6021 12.9576 23.8951C12.6646 24.1882 12.5 24.5856 12.5 25C12.5 25.4144 12.6646 25.8118 12.9576 26.1049C13.2507 26.3979 13.6481 26.5625 14.0625 26.5625H17.1875C17.6019 26.5625 17.9993 26.3979 18.2924 26.1049C18.5854 25.8118 18.75 25.4144 18.75 25C18.75 24.5856 18.5854 24.1882 18.2924 23.8951C17.9993 23.6021 17.6019 23.4375 17.1875 23.4375Z" fill="#00515B"/>
<path d="M17.1875 29.6875H10.9375C10.5231 29.6875 10.1257 29.8521 9.83265 30.1451C9.53962 30.4382 9.375 30.8356 9.375 31.25C9.375 31.6644 9.53962 32.0618 9.83265 32.3549C10.1257 32.6479 10.5231 32.8125 10.9375 32.8125H17.1875C17.6019 32.8125 17.9993 32.6479 18.2924 32.3549C18.5854 32.0618 18.75 31.6644 18.75 31.25C18.75 30.8356 18.5854 30.4382 18.2924 30.1451C17.9993 29.8521 17.6019 29.6875 17.1875 29.6875Z" fill="#00515B"/>
<path d="M17.1875 35.9375H10.9375C10.5231 35.9375 10.1257 36.1021 9.83265 36.3951C9.53962 36.6882 9.375 37.0856 9.375 37.5C9.375 37.9144 9.53962 38.3118 9.83265 38.6049C10.1257 38.8979 10.5231 39.0625 10.9375 39.0625H17.1875C17.6019 39.0625 17.9993 38.8979 18.2924 38.6049C18.5854 38.3118 18.75 37.9144 18.75 37.5C18.75 37.0856 18.5854 36.6882 18.2924 36.3951C17.9993 36.1021 17.6019 35.9375 17.1875 35.9375Z" fill="#00515B"/>
<path d="M56.4374 44.8438C56.3348 44.6653 56.1981 44.5087 56.035 44.3831C55.8719 44.2574 55.6856 44.1651 55.4868 44.1114C55.2881 44.0577 55.0807 44.0437 54.8765 44.0702C54.6723 44.0967 54.4753 44.1631 54.2968 44.2657C54.1183 44.3683 53.9617 44.505 53.836 44.6681C53.7104 44.8312 53.6181 45.0175 53.5644 45.2163C53.5107 45.415 53.4967 45.6224 53.5232 45.8266C53.5496 46.0308 53.6161 46.2278 53.7187 46.4063L60.6093 58.3282L35.6093 67.7032C35.6093 67.7032 35.6093 67.7032 35.4999 67.7032H35.3749L31.3124 70.0469L28.6093 71.6094C28.2534 71.8152 27.8605 71.9487 27.4529 72.0023C27.0454 72.0559 26.6313 72.0286 26.2343 71.9219C25.4368 71.7065 24.757 71.184 24.3437 70.4688L21.2187 65.0626C20.851 64.3552 20.7676 63.5342 20.9854 62.7673C21.2033 62.0005 21.7059 61.3459 22.3905 60.9376L27.7968 57.8126L31.703 64.5782C31.8407 64.8166 32.0389 65.0145 32.2776 65.1517C32.5164 65.2888 32.7871 65.3605 33.0624 65.3594C33.3372 65.3605 33.6074 65.2891 33.8458 65.1524C34.0842 65.0157 34.2824 64.8186 34.4202 64.5809C34.5581 64.3432 34.6309 64.0733 34.6311 63.7985C34.6314 63.5237 34.5592 63.2537 34.4218 63.0157L30.3905 56.0469L49.9999 39.8751L50.6405 40.9844C50.7431 41.1629 50.8799 41.3195 51.043 41.4452C51.2061 41.5708 51.3923 41.6632 51.5911 41.7168C51.7899 41.7705 51.9973 41.7845 52.2015 41.7581C52.4057 41.7316 52.6026 41.6652 52.7812 41.5626C52.9597 41.46 53.1162 41.3232 53.2419 41.1601C53.3676 40.997 53.4599 40.8108 53.5136 40.612C53.5673 40.4132 53.5813 40.2058 53.5548 40.0016C53.5283 39.7974 53.4619 39.6004 53.3593 39.4219L51.7968 36.7188C51.6823 36.523 51.5265 36.3545 51.3404 36.225C51.1542 36.0955 50.942 36.0081 50.7187 35.9688C50.4941 35.9265 50.263 35.9339 50.0416 35.9906C49.8202 36.0473 49.614 36.1519 49.4374 36.2969L27.5624 54.3282L20.9062 58.1719C19.7117 58.8677 18.7815 59.9398 18.2613 61.2206C17.7411 62.5013 17.6602 63.9184 18.0312 65.2501L16.4687 66.1407C15.6636 66.603 15.0139 67.294 14.6021 68.126C14.1902 68.958 14.0346 69.8935 14.1551 70.8141C14.2756 71.7346 14.6668 72.5986 15.2789 73.2965C15.8911 73.9945 16.6967 74.4949 17.5937 74.7344C17.9913 74.8398 18.4011 74.8923 18.8124 74.8907C19.6344 74.8873 20.4416 74.672 21.1562 74.2657L22.7187 73.3751C23.4693 74.1504 24.4132 74.7114 25.453 75.0001C25.987 75.1494 26.5392 75.2231 27.0937 75.2188C28.1919 75.2213 29.2709 74.93 30.2187 74.3751L31.578 73.5938L34.703 79.0157C35.3241 80.0894 36.3454 80.8732 37.5433 81.1954C38.7411 81.5175 40.0178 81.3518 41.0937 80.7344C41.6274 80.4269 42.0953 80.0172 42.4706 79.5287C42.8459 79.0402 43.1212 78.4825 43.2809 77.8876C43.4405 77.2926 43.4813 76.672 43.4009 76.0612C43.3205 75.4505 43.1205 74.8616 42.8124 74.3282L39.9687 69.3751L63.4062 60.5782C63.6187 60.4983 63.8113 60.373 63.9705 60.2111C64.1297 60.0492 64.2517 59.8545 64.328 59.6407C64.4041 59.4294 64.4337 59.2041 64.4148 58.9803C64.3959 58.7565 64.329 58.5394 64.2187 58.3438L56.4374 44.8438ZM19.5312 71.5469C19.3532 71.6498 19.1568 71.7165 18.953 71.7434C18.7492 71.7702 18.5422 71.7565 18.3437 71.7032C17.9434 71.5992 17.6006 71.3407 17.3905 70.9844C17.2877 70.8065 17.2209 70.61 17.1941 70.4062C17.1673 70.2025 17.181 69.9954 17.2343 69.7969C17.2876 69.5974 17.38 69.4104 17.5061 69.2468C17.6321 69.0832 17.7893 68.9463 17.9687 68.8438L19.328 68.0626L20.8905 70.7657L19.5312 71.5469ZM40.0937 75.9219C40.1965 76.0999 40.2633 76.2963 40.2901 76.5001C40.3169 76.7039 40.3033 76.9109 40.2499 77.1094C40.1385 77.5066 39.8745 77.8436 39.5155 78.0469C39.1587 78.252 38.7353 78.3079 38.3374 78.2025C37.9395 78.0972 37.5993 77.8392 37.3905 77.4844L34.2655 72.0626L36.8593 70.5782H36.9843L40.0937 75.9219Z" fill="#00515B"/>
</svg>
