<svg width="100" height="100" viewBox="0 0 100 100" fill="none" xmlns="http://www.w3.org/2000/svg">
<g clip-path="url(#clip0_38_715)">
<path d="M98.5763 26.259C98.5761 26.259 98.5761 26.259 98.5759 26.259L98.5726 26.2557L92.1179 25.3348C91.2107 25.2056 90.5799 24.3653 90.7091 23.4581C90.7712 23.0221 91.0041 22.6289 91.3563 22.3646L96.5731 18.452C97.3063 17.9021 97.4548 16.8622 96.905 16.129L90.9315 8.16431C90.3816 7.43111 89.3417 7.2826 88.6085 7.83245L83.3933 11.7451C82.6632 12.2991 81.6224 12.1564 81.0684 11.4263C80.7994 11.0718 80.684 10.624 80.7483 10.1837L81.6709 3.729C81.801 2.82177 81.1711 1.98113 80.264 1.85087C80.2634 1.85087 80.2628 1.85066 80.2622 1.85066L70.4125 0.443574C69.5055 0.313319 68.6645 0.943025 68.5342 1.85025C68.5342 1.85046 68.5342 1.85046 68.5342 1.85066L67.6116 8.30535C67.4824 9.21258 66.6422 9.84332 65.735 9.7141C65.299 9.65209 64.9057 9.41916 64.6415 9.06697L60.7305 3.85012C60.1807 3.11692 59.1407 2.96841 58.4075 3.51826L53.4213 7.25999C51.1655 7.02022 48.8905 7.02022 46.6347 7.25999C31.8615 8.94854 20.2765 20.73 18.8364 35.5295C18.7916 35.9991 18.775 36.4654 18.7518 36.9317H18.254C17.4667 36.9331 16.7886 37.4877 16.6312 38.2591L15.4846 43.7116L10.8917 40.544C10.2325 40.0891 9.3423 40.1702 8.77606 40.7364L3.79815 45.7143C3.23274 46.2804 3.15185 47.1693 3.60567 47.8283L6.75835 52.413L1.30422 53.5595C0.541351 53.7267 -0.00165551 54.4031 3.7924e-06 55.184V61.8212C-0.000411033 62.6061 0.549441 63.2839 1.31749 63.4457L6.77162 64.5922L3.61894 69.1769C3.16513 69.8359 3.24602 70.7248 3.81142 71.2908L8.78933 76.2688C9.35557 76.835 10.2458 76.9161 10.9049 76.4612L15.4896 73.3003L16.6362 78.7544C16.7936 79.5258 17.4716 80.0804 18.259 80.0818H24.8962C25.681 80.0823 26.3589 79.5324 26.5206 78.7644L27.6672 73.3102L32.2519 76.4629C32.9108 76.9167 33.7998 76.8358 34.3658 76.2704L36.9427 73.6852V78.4142C36.9502 80.7748 38.2148 82.9524 40.2613 84.1289V93.348C40.2613 97.0136 43.2329 99.9852 46.8986 99.9852H53.5358C57.2014 99.9852 60.173 97.0136 60.173 93.348V84.1289C62.2195 82.9524 63.4841 80.7748 63.4916 78.4142V71.8467C63.5366 69.0834 64.9823 66.5322 67.3296 65.0734C68.7066 64.1801 70.0124 63.1814 71.2356 62.0867L69.022 59.6143C67.9279 60.595 66.759 61.4887 65.5259 62.2875C62.2311 64.3554 60.2143 67.9569 60.173 71.8467V78.4142C60.173 80.2471 58.6873 81.7328 56.8544 81.7328H43.5799C41.747 81.7328 40.2613 80.2471 40.2613 78.4142V71.709C40.223 67.8928 38.2378 64.3608 34.998 62.3439C21.8466 54.0801 17.8842 36.7199 26.1479 23.5685C31.2752 15.4086 40.2234 10.4421 49.8604 10.4077C49.8357 10.4668 49.8139 10.5272 49.7957 10.5886C49.7341 11.0241 49.8482 11.4665 50.1126 11.8181L54.0236 17.0333C54.4359 17.567 54.4756 18.3 54.1232 18.8751C53.7838 19.4538 53.1278 19.7695 52.4639 19.6732L46.0092 18.7507C45.1019 18.6206 44.2613 19.2505 44.131 20.1575C44.131 20.1582 44.1308 20.1588 44.1308 20.1594L42.7221 30.014C42.592 30.921 43.222 31.7619 44.129 31.8921C44.1296 31.8921 44.1302 31.8923 44.1308 31.8923L50.5855 32.8149C51.4927 32.9441 52.1235 33.7844 51.9943 34.6916C51.9323 35.1276 51.6993 35.5208 51.3471 35.7851L46.132 39.6961C45.3988 40.2459 45.2502 41.2859 45.8001 42.0191L51.7736 49.9837C52.3234 50.7169 53.3634 50.8654 54.0966 50.3156L59.3135 46.4046C60.0473 45.8558 61.0873 46.0058 61.6361 46.7398C61.8987 47.0909 62.0117 47.5319 61.9501 47.966L61.0292 54.4207C60.8989 55.3277 61.5286 56.1688 62.4359 56.299C62.4361 56.299 62.4361 56.299 62.4363 56.299L72.2925 57.7078C72.3701 57.7177 72.4483 57.7227 72.5265 57.7227C73.3526 57.7238 74.0535 57.1169 74.1709 56.299L75.0918 49.8444C75.221 48.9371 76.0612 48.3064 76.9685 48.4356C77.4044 48.4976 77.7977 48.7305 78.0619 49.0827L81.9746 54.2979C82.5244 55.0311 83.5644 55.1796 84.2976 54.6298L92.2623 48.6563C92.9955 48.1064 93.144 47.0665 92.5941 46.3333L88.6831 41.1181C88.2727 40.5836 88.233 39.8518 88.5836 39.2762C88.9156 38.6899 89.5777 38.3721 90.2429 38.4798L96.6976 39.4007C97.6046 39.531 98.4456 38.901 98.5759 37.994C98.5759 37.9938 98.5759 37.9938 98.5759 37.9936L99.983 28.1373C100.113 27.2301 99.4835 26.3893 98.5763 26.259ZM43.5799 85.0515H56.8544V88.3701H43.5799V85.0515ZM43.5799 91.6887H56.8544V93.348C56.8544 95.1809 55.3687 96.6666 53.5358 96.6666H46.8986C45.0656 96.6666 43.5799 95.1809 43.5799 93.348V91.6887ZM30.3702 63.074C31.2762 63.8149 32.2228 64.5047 33.206 65.1398C34.7738 66.1306 35.954 67.6296 36.5495 69.386L32.9903 72.9385L29.5439 70.5624C28.0348 69.5224 25.9683 69.9028 24.9281 71.412C24.6788 71.7739 24.5038 72.1817 24.4133 72.6117L23.5439 76.7549H19.5997L18.7302 72.6183C18.3527 70.8248 16.5928 69.6768 14.7993 70.0543C14.3694 70.1447 13.9616 70.3197 13.5997 70.5691L10.1516 72.9385L7.12837 69.9219L9.50283 66.4772C10.5438 64.9687 10.1647 62.902 8.65617 61.861C8.29403 61.6111 7.88584 61.4356 7.45525 61.345L3.31861 60.4739V56.5313L7.45525 55.6602C9.24813 55.28 10.3935 53.5185 10.0133 51.7254C9.92305 51.3 9.75028 50.8966 9.50449 50.5379L7.12837 47.0833L10.1516 44.0667L13.6013 46.4428C15.1111 47.4817 17.1775 47.1001 18.2165 45.5903C18.4654 45.2288 18.64 44.8214 18.7302 44.3919L19.0206 43.0113C19.2865 44.9233 19.7268 46.8066 20.3364 48.638C14.8767 49.2889 10.9784 54.2428 11.6292 59.7025C12.2801 65.1622 17.2339 69.0605 22.6937 68.4097C25.9803 68.0177 28.8574 66.018 30.3702 63.074ZM27.7933 60.736C26.5542 64.1801 22.758 65.9676 19.3139 64.7287C15.8698 63.4896 14.0823 59.6934 15.3212 56.2493C16.2691 53.6145 18.7707 51.8596 21.5707 51.8654C21.5923 51.8654 21.6122 51.8654 21.6338 51.8654C23.1597 55.1556 25.2436 58.1566 27.7933 60.736ZM95.5161 35.8763L90.7042 35.1894C87.9825 34.8007 85.4612 36.6921 85.0725 39.4136C84.8858 40.7205 85.226 42.0481 86.0183 43.1043L88.9337 46.992L83.6239 50.9743L80.7069 47.0882C79.0575 44.8886 75.9374 44.4425 73.738 46.0918C72.6818 46.8837 71.9835 48.0629 71.7964 49.3698L71.1244 54.1884L64.5552 53.2492L65.2422 48.4373C65.6319 45.7158 63.7415 43.1937 61.0201 42.8041C59.7123 42.6168 58.384 42.957 57.3273 43.7497L53.4395 46.6651L49.4572 41.3554L53.3433 38.4383C55.5429 36.789 55.989 33.6688 54.3397 31.4694C53.5478 30.4133 52.3687 29.7149 51.0617 29.5278L46.2498 28.8409L47.1889 22.2717L52.0009 22.9587C54.7224 23.3484 57.2445 21.458 57.634 18.7366C57.8213 17.4288 57.4812 16.1006 56.6884 15.0438L53.7631 11.1527L59.0729 7.17039L61.9899 11.0581C63.6393 13.2578 66.7594 13.7039 68.9588 12.0545C70.0149 11.2626 70.7133 10.0835 70.9004 8.7766L71.5873 3.96462L78.1565 4.90212L77.4696 9.7141C77.0809 12.4358 78.9721 14.9571 81.6937 15.3458C83.0006 15.5324 84.3283 15.1923 85.3844 14.4L89.2722 11.4846L93.2545 16.7943L89.3668 19.7114C87.1672 21.3608 86.721 24.4809 88.3704 26.6803C89.1623 27.7364 90.3414 28.4348 91.6483 28.6219L96.4603 29.3088L95.5161 35.8763Z" fill="white"/>
<path d="M71.3501 15.7988C64.0189 15.7988 58.0757 21.742 58.0757 29.0733C58.0757 36.4045 64.0189 42.3477 71.3501 42.3477C78.6813 42.3477 84.6245 36.4045 84.6245 29.0733C84.6162 21.7454 78.678 15.8069 71.3501 15.7988ZM71.3501 39.0291C65.8516 39.0291 61.3943 34.5718 61.3943 29.0733C61.3943 23.5747 65.8516 19.1174 71.3501 19.1174C76.8486 19.1174 81.3059 23.5747 81.3059 29.0733C81.2995 34.5691 76.8459 39.0227 71.3501 39.0291Z" fill="white"/>
<path d="M51.8765 73.4364H48.5579V78.4143H51.8765V73.4364Z" fill="white"/>
<path d="M42.9594 57.1404C32.7163 53.139 27.6565 41.5915 31.6581 31.3484C33.2087 27.3793 35.9916 24.0124 39.5976 21.7425L37.8238 18.9349C26.9687 25.7735 23.7125 40.1172 30.5511 50.9723C33.1996 55.1764 37.1263 58.4205 41.7547 60.2284C45.8516 61.7981 48.5568 65.7306 48.5579 70.1178H51.8765C51.8817 64.3617 48.3345 59.1994 42.9594 57.1404Z" fill="white"/>
<path d="M93.359 61.8213H81.7439V65.1399H93.359V61.8213Z" fill="white"/>
<path d="M81.1469 70.5011L79.0227 73.0508L88.9792 81.3459L91.1035 78.7963L81.1469 70.5011Z" fill="white"/>
<path d="M75.1067 75.0957H71.7881V86.7108H75.1067V75.0957Z" fill="white"/>
<path d="M14.9678 25.3652L1.69434 28.6832L2.4987 31.901L15.7722 28.583L14.9678 25.3652Z" fill="white"/>
<path d="M6.37849 9.03476L4.45068 11.7338L16.0649 20.0294L17.9927 17.3304L6.37849 9.03476Z" fill="white"/>
<path d="M21.8828 0.0137964L18.6677 0.835815L22.0614 14.1092L25.2765 13.2872L21.8828 0.0137964Z" fill="white"/>
</g>
<defs>
<clipPath id="clip0_38_715">
<rect width="100" height="100" fill="white"/>
</clipPath>
</defs>
</svg>
