<svg width="100" height="100" viewBox="0 0 100 100" fill="none" xmlns="http://www.w3.org/2000/svg">
<g clip-path="url(#clip0_38_714)">
<path d="M49.9999 35.0162C45.3988 35.0162 41.6687 38.7463 41.6687 43.3474C41.6741 47.9465 45.4009 51.6732 49.9999 51.6786C54.601 51.6786 58.3311 47.9485 58.3311 43.3474C58.3311 38.7463 54.601 35.0162 49.9999 35.0162ZM49.9999 48.3461C47.2391 48.3461 45.0012 46.1082 45.0012 43.3474C45.0041 40.5879 47.2404 38.3516 49.9999 38.3487C52.7606 38.3487 54.9986 40.5867 54.9986 43.3474C54.9986 46.1082 52.7606 48.3461 49.9999 48.3461Z" fill="#00515B"/>
<path d="M67.2272 39.9368L64.9254 38.9214C64.8359 38.6 64.7395 38.2891 64.6357 37.9881L65.9162 35.7785C66.2107 35.2701 66.2157 34.644 65.9291 34.131C65.256 32.9286 64.452 31.8043 63.5314 30.7789C63.1272 30.327 62.509 30.1305 61.9181 30.2663L59.9971 30.7062V20.02C59.994 16.3774 58.0112 13.0245 54.8205 11.2671C57.3622 8.60461 57.2643 4.38569 54.6018 1.84384C51.9396 -0.697796 47.7207 -0.599905 45.1791 2.06275C42.7203 4.63833 42.7203 8.69167 45.1791 11.2671C41.9886 13.0245 40.0056 16.3774 40.0025 20.02V30.7062L38.0815 30.2663C37.4908 30.1308 36.8733 30.3267 36.469 30.7781C35.5486 31.8034 34.7442 32.9273 34.0704 34.1293C33.7841 34.6427 33.7891 35.2688 34.0836 35.7776L35.3641 37.9873C35.2616 38.2851 35.166 38.5921 35.0777 38.9083L32.6841 39.9284C32.0699 40.1903 31.6713 40.7934 31.6713 41.4612V45.2329C31.6713 45.9007 32.0699 46.5038 32.6841 46.7657L35.0777 47.7858C35.1664 48.103 35.2616 48.409 35.3641 48.706L34.0836 50.9156C33.7891 51.424 33.7841 52.0501 34.0704 52.5631C34.7438 53.7653 35.548 54.8896 36.4682 55.9152C36.8722 56.3676 37.4904 56.564 38.0815 56.4278L40.5011 55.8737C40.7387 56.0599 40.983 56.2403 41.2342 56.4148L41.4685 58.9817C41.5229 59.5738 41.8884 60.092 42.4279 60.342C43.663 60.9199 44.9597 61.3557 46.2933 61.6404C46.8865 61.7629 47.4997 61.555 47.8961 61.097L49.594 59.1273H50.4058L52.1037 61.097C52.4997 61.5558 53.1133 61.7639 53.7064 61.6404C55.0396 61.3552 56.3362 60.9197 57.5711 60.342C58.1103 60.0924 58.4756 59.5742 58.5296 58.9825L58.7647 56.4148C59.0161 56.2407 59.2606 56.0604 59.4985 55.8737L61.9181 56.4278C62.5092 56.5638 63.1274 56.3674 63.5314 55.9152C64.4512 54.8898 65.2552 53.7662 65.9291 52.5648C66.2155 52.0514 66.2105 51.4253 65.9162 50.9165L64.6357 48.7068C64.7399 48.405 64.8365 48.0936 64.9254 47.7729L67.2272 46.7575C67.8307 46.4907 68.2202 45.893 68.2206 45.2329V41.461C68.2202 40.8013 67.8307 40.2036 67.2272 39.9368ZM49.9999 3.35762C51.8405 3.35762 53.3324 4.84953 53.3324 6.6901C53.3324 8.53067 51.8405 10.0226 49.9999 10.0226C48.1593 10.0226 46.6674 8.53067 46.6674 6.6901C46.6693 4.85036 48.1602 3.3595 49.9999 3.35762ZM43.3349 20.02C43.3349 16.3391 46.319 13.3551 49.9999 13.3551C53.6808 13.3551 56.6649 16.3391 56.6649 20.02V25.9899C55.7082 25.5917 54.7183 25.2785 53.7067 25.0537C53.1135 24.9308 52.5001 25.1389 52.1039 25.5971L50.406 27.5668H49.5942L47.8977 25.5971C47.5012 25.1387 46.8876 24.9306 46.2942 25.0537C45.2821 25.2785 44.292 25.5917 43.3351 25.9899V20.02H43.3349ZM64.8877 44.1472L62.8358 45.0528C62.354 45.2658 62.0012 45.6938 61.8839 46.2073C61.7321 46.895 61.5222 47.5686 61.2566 48.2209C61.0585 48.7004 61.095 49.2446 61.3551 49.6934L62.5404 51.7379C62.272 52.1545 61.982 52.5596 61.6707 52.9534L59.4398 52.4425C58.9168 52.3211 58.3673 52.4604 57.9656 52.8168C57.4467 53.2729 56.8902 53.6843 56.3018 54.0461C55.8569 54.3216 55.5674 54.7901 55.5199 55.3112L55.3019 57.691C54.8537 57.8676 54.4065 58.0194 53.9603 58.1467L52.4316 56.3738C52.115 56.0066 51.6545 55.7954 51.1696 55.7954H48.8298C48.3451 55.7956 47.8844 56.0068 47.5678 56.3738L46.039 58.1475C45.5931 58.0198 45.1449 57.8676 44.6975 57.6912L44.4803 55.3122C44.4324 54.7907 44.1422 54.3218 43.6967 54.0463C43.1087 53.6841 42.5524 53.2729 42.0338 52.817C41.6318 52.4611 41.0826 52.3215 40.5596 52.4427L38.3287 52.9536C38.0171 52.5598 37.7272 52.1547 37.4589 51.7381L38.6443 49.6937C38.9044 49.2448 38.9407 48.7006 38.7428 48.2211C38.477 47.569 38.2671 46.8952 38.1154 46.2075C37.9967 45.6866 37.6356 45.2542 37.144 45.0448L35.0035 44.1328V42.5626L37.144 41.6505C37.6356 41.4412 37.9967 41.0088 38.1154 40.4879C38.2673 39.8001 38.4772 39.1266 38.7428 38.4742C38.9407 37.9948 38.9044 37.4505 38.6443 37.0017L37.4589 34.9572C37.7274 34.5407 38.0171 34.1356 38.3279 33.7417L40.5596 34.2526C41.0826 34.3717 41.631 34.2326 42.0338 33.8783C42.5526 33.4222 43.1092 33.0111 43.6976 32.6491C44.1424 32.3735 44.432 31.9051 44.4794 31.384L44.6975 29.0042C45.1449 28.8275 45.5925 28.6755 46.0399 28.5478L47.567 30.3215C47.8838 30.6887 48.3447 30.8999 48.8296 30.8999H51.1694C51.6541 30.8997 52.1148 30.6885 52.4314 30.3215L53.9601 28.5478C54.4061 28.6755 54.8543 28.8278 55.3017 29.0042L55.5189 31.3831C55.5668 31.9047 55.8569 32.3735 56.3025 32.6491C56.8904 33.0113 57.4467 33.4224 57.9654 33.8783C58.368 34.2328 58.9166 34.3722 59.4396 34.2526L61.6709 33.7413C61.9825 34.1351 62.2724 34.5402 62.5406 34.9568L61.3553 37.0013C61.0952 37.4501 61.0589 37.9944 61.2568 38.4738C61.5224 39.1262 61.7321 39.7997 61.8841 40.4875C62.0014 41.0009 62.3544 41.4289 62.836 41.642L64.888 42.5476V44.1472H64.8877Z" fill="#00515B"/>
<path d="M81.6585 73.3397C77.0574 73.3397 73.3273 77.0698 73.3273 81.6709C73.3273 86.272 77.0574 90.0021 81.6585 90.0021C86.2596 90.0021 89.9896 86.272 89.9896 81.6709C89.9842 77.0719 86.2575 73.3451 81.6585 73.3397ZM81.6585 86.6696C78.8977 86.6696 76.6597 84.4317 76.6597 81.6709C76.6597 78.9102 78.8977 76.6722 81.6585 76.6722C84.4192 76.6722 86.6572 78.9102 86.6572 81.6709C86.6543 84.4304 84.418 86.6667 81.6585 86.6696Z" fill="#00515B"/>
<path d="M98.8858 78.2603L96.5841 77.2449C96.4945 76.9235 96.3981 76.6126 96.2944 76.3118L97.5749 74.1022C97.8694 73.5938 97.8744 72.9677 97.5878 72.4547C96.9146 71.2523 96.1107 70.128 95.1901 69.1026C94.7854 68.6513 94.1676 68.4549 93.5767 68.5901L91.6558 69.0299V58.3437C91.6526 54.7011 89.6698 51.3482 86.4792 49.5908C89.0208 46.9283 88.9229 42.7094 86.2605 40.1676C83.598 37.6257 79.3791 37.7238 76.8373 40.3863C74.3785 42.9618 74.3785 47.0152 76.8373 49.5906C73.6468 51.348 71.6638 54.7009 71.6607 58.3435V69.0297L69.7397 68.5898C69.1492 68.4553 68.5321 68.6511 68.1272 69.1016C67.2068 70.127 66.4024 71.2508 65.7286 72.4528C65.4423 72.9662 65.4473 73.5923 65.7418 74.1011L67.0223 76.3108C66.9198 76.6086 66.8242 76.9156 66.7359 77.2318L64.3423 78.252C63.7281 78.5138 63.3295 79.1169 63.3295 79.7847V83.5564C63.3295 84.2242 63.7281 84.8273 64.3423 85.0892L66.7359 86.1093C66.8246 86.4265 66.9198 86.7325 67.0223 87.0295L65.7418 89.2391C65.4473 89.7475 65.4423 90.3736 65.7286 90.8866C66.402 92.0888 67.2062 93.2131 68.1264 94.2387C68.53 94.6915 69.1486 94.8881 69.7397 94.7513L72.1593 94.1972C72.3969 94.3834 72.6412 94.5638 72.8924 94.7383L73.1267 97.3052C73.1811 97.8973 73.5466 98.4155 74.0861 98.6655C75.3212 99.2434 76.6179 99.6792 77.9516 99.9639C78.5449 100.088 79.1587 99.8795 79.5543 99.4205L81.2522 97.4508H82.064L83.7619 99.4205C84.1579 99.8793 84.7715 100.087 85.3647 99.9639C86.6979 99.6787 87.9944 99.2432 89.2293 98.6655C89.7685 98.4159 90.1339 97.8977 90.1878 97.306L90.4229 94.7383C90.6743 94.5642 90.9191 94.3839 91.1567 94.1972L93.5763 94.7513C94.1674 94.8885 94.7862 94.6919 95.1896 94.2387C96.1094 93.2133 96.9134 92.0897 97.5874 90.8883C97.8737 90.3749 97.8687 89.7488 97.5744 89.24L96.2939 87.0303C96.3981 86.7285 96.4947 86.4171 96.5837 86.0964L98.8854 85.081C99.489 84.8142 99.8784 84.2165 99.8789 83.5564V79.7845C99.8789 79.1249 99.4894 78.5271 98.8858 78.2603ZM81.6585 41.6811C83.4991 41.6811 84.991 43.173 84.991 45.0136C84.991 46.8542 83.4991 48.3461 81.6585 48.3461C79.818 48.3461 78.326 46.8542 78.326 45.0136C78.3279 43.1739 79.8188 41.683 81.6585 41.6811ZM74.9936 58.3435C74.9936 54.6626 77.9776 51.6786 81.6585 51.6786C85.3395 51.6786 88.3235 54.6626 88.3235 58.3435V64.3134C87.3669 63.9152 86.3769 63.602 85.3653 63.3772C84.7721 63.2552 84.1591 63.4628 83.7626 63.9206L82.0647 65.8903H81.2528L79.5564 63.9206C79.1594 63.4628 78.5462 63.255 77.9528 63.3772C76.9408 63.602 75.9506 63.9152 74.9938 64.3134V58.3435H74.9936ZM96.5466 82.4707L94.4946 83.3763C94.0129 83.5893 93.66 84.0173 93.5428 84.5308C93.3909 85.2185 93.181 85.8921 92.9154 86.5444C92.7174 87.0239 92.7538 87.5681 93.0139 88.0169L94.1993 90.0614C93.9308 90.478 93.6409 90.8831 93.3295 91.2769L91.0986 90.766C90.5756 90.6442 90.026 90.7837 89.6244 91.1403C89.1056 91.5964 88.549 92.0078 87.9607 92.3696C87.5158 92.6451 87.2263 93.1136 87.1788 93.6347L86.9607 96.0145C86.5125 96.1911 86.0653 96.3429 85.6192 96.4702L84.0904 94.6973C83.7738 94.3301 83.3133 94.1189 82.8284 94.1189H80.4886C80.0039 94.1191 79.5432 94.3303 79.2266 94.6973L77.6979 96.471C77.2519 96.3433 76.8037 96.1911 76.3563 96.0147L76.1391 93.6357C76.0912 93.1142 75.8011 92.6453 75.3556 92.3698C74.7676 92.0076 74.2113 91.5964 73.6926 91.1405C73.2911 90.7842 72.7414 90.6446 72.2184 90.7662L69.9876 91.2772C69.676 90.8833 69.386 90.4782 69.1178 90.0616L70.3031 88.0172C70.5632 87.5683 70.5995 87.0241 70.4016 86.5446C70.1359 85.8925 69.9259 85.2187 69.7743 84.531C69.6556 84.0101 69.2944 83.5777 68.8029 83.3683L66.6622 82.4563V80.8861L68.8027 79.974C69.2942 79.7647 69.6554 79.3323 69.7741 78.8114C69.9259 78.1237 70.1359 77.4501 70.4014 76.7977C70.5995 76.3183 70.563 75.774 70.3029 75.3252L69.1176 73.2807C69.386 72.8642 69.6758 72.4591 69.9865 72.0652L72.2182 72.5761C72.7412 72.6963 73.29 72.557 73.6924 72.2018C74.2113 71.7457 74.7678 71.3346 75.3562 70.9726C75.8011 70.697 76.0906 70.2286 76.1381 69.7075L76.3561 67.3277C76.8035 67.1511 77.2511 66.999 77.6985 66.8713L79.2256 68.645C79.5424 69.0122 80.0033 69.2234 80.4882 69.2234H82.828C83.3127 69.2232 83.7734 69.012 84.09 68.645L85.6188 66.8713C86.0647 66.999 86.5129 67.1513 86.9603 67.3277L87.1775 69.7066C87.2254 70.2282 87.5156 70.697 87.9611 70.9726C88.5491 71.3348 89.1054 71.7459 89.624 72.2018C90.0264 72.557 90.5752 72.6963 91.0982 72.5761L93.3295 72.0648C93.6411 72.4586 93.931 72.8638 94.1993 73.2803L93.0139 75.3248C92.7538 75.7736 92.7176 76.3179 92.9154 76.7973C93.181 77.4497 93.3907 78.1232 93.5428 78.811C93.66 79.3244 94.0131 79.7524 94.4946 79.9655L96.5466 80.8711V82.4707Z" fill="#00515B"/>
<path d="M18.3413 73.3397C13.7402 73.3397 10.0101 77.0698 10.0101 81.6709C10.0155 86.27 13.7423 89.9967 18.3413 90.0021C22.9424 90.0021 26.6725 86.272 26.6725 81.6709C26.6725 77.0698 22.9424 73.3397 18.3413 73.3397ZM18.3413 86.6696C15.5806 86.6696 13.3426 84.4317 13.3426 81.6709C13.3455 78.9114 15.5818 76.6751 18.3413 76.6722C21.1021 76.6722 23.3401 78.9102 23.3401 81.6709C23.3401 84.4317 21.1021 86.6696 18.3413 86.6696Z" fill="#00515B"/>
<path d="M35.5684 78.2603L33.2667 77.2449C33.1772 76.9235 33.0807 76.6126 32.977 76.3118L34.2575 74.1022C34.552 73.5938 34.557 72.9677 34.2706 72.4547C33.5973 71.2525 32.7931 70.1282 31.8729 69.1026C31.468 68.6515 30.8505 68.4553 30.2596 68.5901L28.3386 69.0299V58.3437C28.3355 54.7011 26.3527 51.3482 23.162 49.5908C25.7037 46.9283 25.6058 42.7094 22.9433 40.1676C20.2809 37.6257 16.062 37.7238 13.5201 40.3863C11.0614 42.9618 11.0614 47.0152 13.5201 49.5906C10.3297 51.348 8.34666 54.7009 8.34353 58.3435V69.0297L6.42257 68.5898C5.83209 68.4555 5.21496 68.6513 4.81006 69.1016C3.88968 70.127 3.0853 71.2508 2.41151 72.4528C2.12513 72.9662 2.13013 73.5923 2.42443 74.1011L3.70493 76.3108C3.60079 76.6126 3.50415 76.924 3.41521 77.2447L1.11434 78.2603C0.51075 78.5271 0.121058 79.1249 0.12085 79.7849V83.5566C0.121058 84.2167 0.510541 84.8146 1.11434 85.0814L3.41605 86.0968C3.50561 86.4182 3.60204 86.7292 3.70576 87.0299L2.42526 89.2395C2.13075 89.748 2.12575 90.374 2.41214 90.887C3.08551 92.0892 3.88968 93.2135 4.80986 94.2391C5.2135 94.6919 5.83209 94.8885 6.42319 94.7517L8.84278 94.1977C9.08043 94.3839 9.32474 94.5642 9.57593 94.7388L9.81024 97.3056C9.8646 97.8977 10.2299 98.4159 10.7694 98.6659C12.0045 99.2439 13.3012 99.6796 14.6348 99.9643C15.2282 100.088 15.8422 99.8801 16.2376 99.4209L17.9354 97.4512H18.7473L20.4452 99.4209C20.8412 99.8797 21.4548 100.088 22.0479 99.9643C23.3811 99.6792 24.6777 99.2436 25.9126 98.6659C26.4518 98.4164 26.8171 97.8982 26.8711 97.3064L27.1062 94.7388C27.3576 94.5646 27.6023 94.3843 27.84 94.1977L30.2596 94.7517C30.8507 94.8887 31.4693 94.6921 31.8729 94.2391C32.7927 93.2137 33.5969 92.0901 34.2706 90.8887C34.557 90.3753 34.552 89.7492 34.2575 89.2404L32.977 87.0307C33.0812 86.7289 33.1778 86.4176 33.2667 86.0968L35.5684 85.0814C36.172 84.8146 36.5615 84.2169 36.5619 83.5568V79.7849C36.5617 79.1249 36.1722 78.5271 35.5684 78.2603ZM18.3414 41.6811C20.182 41.6811 21.6739 43.173 21.6739 45.0136C21.6739 46.8542 20.182 48.3461 18.3414 48.3461C16.5008 48.3461 15.0089 46.8542 15.0089 45.0136C15.0108 43.1739 16.5016 41.683 18.3414 41.6811ZM11.6764 58.3435C11.6764 54.6626 14.6605 51.6786 18.3414 51.6786C22.0223 51.6786 25.0063 54.6626 25.0063 58.3435V64.3134C24.0497 63.9152 23.0598 63.602 22.0481 63.3772C21.455 63.2545 20.8416 63.4624 20.4454 63.9206L18.7475 65.8903H17.9357L16.2392 63.9206C15.8424 63.4626 15.2291 63.255 14.6357 63.3772C13.6236 63.602 12.6335 63.9152 11.6766 64.3134V58.3435H11.6764ZM33.2292 82.4707L31.1773 83.3763C30.6955 83.5893 30.3427 84.0173 30.2254 84.5308C30.074 85.2185 29.8641 85.8923 29.5981 86.5444C29.4 87.0239 29.4365 87.5681 29.6966 88.0169L30.8819 90.0614C30.6134 90.478 30.3235 90.8831 30.0121 91.2769L27.7813 90.766C27.2583 90.644 26.7084 90.7835 26.3071 91.1403C25.7882 91.5964 25.2317 92.0078 24.6433 92.3696C24.1984 92.6451 23.9089 93.1136 23.8614 93.6347L23.6434 96.0145C23.1951 96.1911 22.748 96.3429 22.3018 96.4702L20.7731 94.6973C20.4565 94.3301 19.996 94.1189 19.5111 94.1189H17.1713C16.6866 94.1191 16.2259 94.3303 15.9093 94.6973L14.3805 96.471C13.9346 96.3433 13.4864 96.1911 13.039 96.0147L12.8218 93.6357C12.7739 93.1142 12.4837 92.6453 12.0382 92.3698C11.4502 92.0076 10.8939 91.5964 10.3753 91.1405C9.97353 90.7844 9.42409 90.6448 8.9011 90.7662L6.67021 91.2772C6.35863 90.8833 6.0687 90.4782 5.80044 90.0616L6.98576 88.0172C7.2459 87.5683 7.28214 87.0241 7.08427 86.5446C6.81851 85.8925 6.60856 85.2187 6.45693 84.531C6.33967 84.0176 5.98664 83.5895 5.50509 83.3765L3.45333 82.4709V80.8713L5.5053 79.9657C5.98705 79.7526 6.33988 79.3246 6.45714 78.8112C6.60856 78.1234 6.81851 77.4497 7.08448 76.7975C7.28256 76.3181 7.24611 75.7738 6.98596 75.325L5.80064 73.2805C6.06912 72.864 6.35883 72.4589 6.66959 72.065L8.90131 72.5759C9.4243 72.6957 9.97291 72.5563 10.3755 72.2016C10.8943 71.7455 11.4509 71.3344 12.0393 70.9724C12.4841 70.6968 12.7736 70.2284 12.8211 69.7073L13.0392 67.3275C13.4866 67.1508 13.9342 66.9988 14.3816 66.8711L15.9087 68.6448C16.2255 69.012 16.6864 69.2232 17.1715 69.2232H19.5113C19.996 69.223 20.4567 69.0118 20.7733 68.6448L22.302 66.8711C22.748 66.9988 23.1962 67.151 23.6436 67.3275L23.8608 69.7064C23.9087 70.228 24.1988 70.6968 24.6444 70.9724C25.2323 71.3346 25.7886 71.7457 26.3073 72.2016C26.7095 72.557 27.2585 72.6963 27.7815 72.5759L30.0124 72.0648C30.3239 72.4586 30.6139 72.8638 30.8821 73.2803L29.6968 75.3248C29.4367 75.7736 29.4004 76.3179 29.5983 76.7973C29.8643 77.4494 30.074 78.1232 30.2256 78.811C30.3429 79.3244 30.6959 79.7524 31.1775 79.9655L33.2295 80.8711V82.4707H33.2292Z" fill="#00515B"/>
<path d="M32.4873 13.5586C22.3935 17.8279 14.2024 25.6309 9.44885 35.5061L12.451 36.9526C16.8528 27.8072 24.4381 20.581 33.7857 16.6274L32.4873 13.5586Z" fill="#00515B"/>
<path d="M63.0964 94.568C54.8291 97.2752 45.9262 97.3542 37.6123 94.7942L36.6229 97.9769C45.5992 100.755 55.2175 100.669 64.1427 97.7312L63.0964 94.568Z" fill="#00515B"/>
<path d="M67.0627 13.3713L65.7985 16.4549C75.491 20.421 83.3315 27.8957 87.7557 37.3879L90.7741 35.9772C85.9968 25.7263 77.5296 17.6542 67.0627 13.3713Z" fill="#00515B"/>
</g>
<defs>
<clipPath id="clip0_38_714">
<rect width="100" height="100" fill="white"/>
</clipPath>
</defs>
</svg>
