<svg width="60" height="60" viewBox="0 0 60 60" fill="none" xmlns="http://www.w3.org/2000/svg">
<rect x="59" y="59" width="58" height="58" transform="rotate(-180 59 59)" stroke="#0C3146" stroke-width="2"/>
<path fill-rule="evenodd" clip-rule="evenodd" d="M32.4381 39.3332C32.0487 39.3332 31.6621 39.1639 31.3981 38.8359L24.9607 30.8359C24.5634 30.3412 24.5687 29.6346 24.9754 29.1466L31.6421 21.1466C32.1127 20.5812 32.9541 20.5052 33.5207 20.9759C34.0861 21.4466 34.1621 22.2879 33.6901 22.8532L27.7234 30.0146L33.4767 37.1639C33.9381 37.7372 33.8474 38.5772 33.2727 39.0386C33.0274 39.2372 32.7314 39.3332 32.4381 39.3332Z" fill="#231F20"/>
<mask id="mask0_715_709" style="mask-type:alpha" maskUnits="userSpaceOnUse" x="24" y="20" width="10" height="20">
<path fill-rule="evenodd" clip-rule="evenodd" d="M32.4381 39.3332C32.0487 39.3332 31.6621 39.1639 31.3981 38.8359L24.9607 30.8359C24.5634 30.3412 24.5687 29.6346 24.9754 29.1466L31.6421 21.1466C32.1127 20.5812 32.9541 20.5052 33.5207 20.9759C34.0861 21.4466 34.1621 22.2879 33.6901 22.8532L27.7234 30.0146L33.4767 37.1639C33.9381 37.7372 33.8474 38.5772 33.2727 39.0386C33.0274 39.2372 32.7314 39.3332 32.4381 39.3332Z" fill="white"/>
</mask>
<g mask="url(#mask0_715_709)">
<rect x="14" y="14" width="32" height="32" fill="#0C3146"/>
</g>
</svg>
