<svg width="60" height="60" viewBox="0 0 60 60" fill="none" xmlns="http://www.w3.org/2000/svg">
<rect x="60" y="60" width="60" height="60" transform="rotate(-180 60 60)" fill="#00515B"/>
<path fill-rule="evenodd" clip-rule="evenodd" d="M27.3327 39.3334C27.0313 39.3334 26.7287 39.2321 26.4793 39.0241C25.914 38.5534 25.838 37.7121 26.3087 37.1468L32.2767 29.9854L26.5233 22.8361C26.062 22.2628 26.1527 21.4228 26.726 20.9614C27.3007 20.5001 28.1393 20.5908 28.602 21.1641L35.0393 29.1641C35.4367 29.6588 35.4313 30.3654 35.0247 30.8534L28.358 38.8534C28.094 39.1694 27.7153 39.3334 27.3327 39.3334Z" fill="#231F20"/>
<mask id="mask0_715_703" style="mask-type:alpha" maskUnits="userSpaceOnUse" x="26" y="20" width="10" height="20">
<path fill-rule="evenodd" clip-rule="evenodd" d="M27.3327 39.3334C27.0313 39.3334 26.7287 39.2321 26.4793 39.0241C25.914 38.5534 25.838 37.7121 26.3087 37.1468L32.2767 29.9854L26.5233 22.8361C26.062 22.2628 26.1527 21.4228 26.726 20.9614C27.3007 20.5001 28.1393 20.5908 28.602 21.1641L35.0393 29.1641C35.4367 29.6588 35.4313 30.3654 35.0247 30.8534L28.358 38.8534C28.094 39.1694 27.7153 39.3334 27.3327 39.3334Z" fill="white"/>
</mask>
<g mask="url(#mask0_715_703)">
<rect x="14" y="14" width="32" height="32" fill="white"/>
</g>
</svg>
