<svg width="100%" height="100vh" viewBox="0 0 100vh 100%" fill="none" xmlns="http://www.w3.org/2000/svg">
<rect width="100%" height="1000" fill="url(#paint0_linear_0_1)"></rect>
<g filter="url(#filter0_f_0_1)">
<circle cx="375" cy="280" r="120" fill="#43CF7B"></circle>
</g>
<path d="M109 1001C109 987.736 111.612 974.603 116.688 962.349C121.764 950.095 129.203 938.961 138.582 929.582C147.961 920.203 159.095 912.764 171.349 907.688C183.603 902.612 196.737 900 210 900C223.264 900 236.397 902.612 248.651 907.688C260.905 912.764 272.039 920.204 281.418 929.582C290.797 938.961 298.236 950.095 303.312 962.349C308.388 974.603 311 987.737 311 1001L233.674 1001C233.674 997.891 233.062 994.813 231.872 991.94C230.682 989.068 228.938 986.458 226.74 984.26C224.542 982.062 221.932 980.318 219.06 979.128C216.187 977.938 213.109 977.326 210 977.326C206.891 977.326 203.813 977.938 200.94 979.128C198.068 980.318 195.458 982.062 193.26 984.26C191.062 986.458 189.318 989.068 188.128 991.94C186.938 994.813 186.326 997.891 186.326 1001L109 1001Z" fill="#D5DBE7"></path>
<path d="M1920 292C1912.51 292 1905.1 290.526 1898.19 287.661C1891.27 284.797 1884.99 280.598 1879.69 275.305C1874.4 270.012 1870.2 263.729 1867.34 256.813C1864.47 249.897 1863 242.485 1863 235C1863 227.515 1864.47 220.103 1867.34 213.187C1870.2 206.271 1874.4 199.988 1879.69 194.695C1884.99 189.402 1891.27 185.203 1898.19 182.339C1905.1 179.474 1912.51 178 1920 178L1920 221.054C1918.17 221.054 1916.36 221.415 1914.66 222.116C1912.97 222.817 1911.43 223.844 1910.14 225.139C1908.84 226.434 1907.82 227.971 1907.12 229.663C1906.42 231.355 1906.05 233.169 1906.05 235C1906.05 236.831 1906.42 238.645 1907.12 240.337C1907.82 242.029 1908.84 243.566 1910.14 244.861C1911.43 246.156 1912.97 247.183 1914.66 247.884C1916.36 248.585 1918.17 248.946 1920 248.946L1920 292Z" fill="#D5E4E6"></path>
<defs>
<filter id="filter0_f_0_1" x="-45" y="-140" width="100%" height="840" filterUnits="userSpaceOnUse" color-interpolation-filters="sRGB">
<feFlood flood-opacity="0" result="BackgroundImageFix"></feFlood>
<feBlend mode="normal" in="SourceGraphic" in2="BackgroundImageFix" result="shape"></feBlend>
<feGaussianBlur stdDeviation="150" result="effect1_foregroundBlur_0_1"></feGaussianBlur>
</filter>
<linearGradient id="paint0_linear_0_1" x1="0" y1="0" x2="1920" y2="1000" gradientUnits="userSpaceOnUse">
<stop stop-color="#E1EAEB"></stop>
<stop offset="0.515625" stop-color="#E9ECF7"></stop>
<stop offset="1" stop-color="white"></stop>
</linearGradient>
</defs>
</svg>